National Park -Regular.ufo
<glyph name="plus" format="2">
	<advance width="515"/>
	<unicode hex="002B"/>
	<outline>
		<contour>
			<point x="301" y="170" type="curve" smooth="yes"/>
			<point x="301" y="547" type="line" smooth="yes"/>
			<point x="301" y="568"/>
			<point x="284" y="586"/>
			<point x="262" y="586" type="curve" smooth="yes"/>
			<point x="240" y="586"/>
			<point x="223" y="568"/>
			<point x="223" y="547" type="curve" smooth="yes"/>
			<point x="223" y="170" type="line" smooth="yes"/>
			<point x="223" y="149"/>
			<point x="240" y="131"/>
			<point x="262" y="131" type="curve" smooth="yes"/>
			<point x="284" y="131"/>
			<point x="301" y="149"/>
		</contour>
		<contour>
			<point x="436" y="398" type="curve" smooth="yes"/>
			<point x="79" y="398" type="line" smooth="yes"/>
			<point x="58" y="398"/>
			<point x="40" y="381"/>
			<point x="40" y="359" type="curve" smooth="yes"/>
			<point x="40" y="337"/>
			<point x="58" y="320"/>
			<point x="79" y="320" type="curve" smooth="yes"/>
			<point x="436" y="320" type="line" smooth="yes"/>
			<point x="457" y="320"/>
			<point x="475" y="337"/>
			<point x="475" y="359" type="curve" smooth="yes"/>
			<point x="475" y="381"/>
			<point x="457" y="398"/>
		</contour>
	</outline>
</glyph>
<glyph name="slash" format="2">
	<advance width="396"/>
	<unicode hex="002F"/>
	<outline>
		<contour>
			<point x="118" y="-136" type="curve" smooth="yes"/>
			<point x="354" y="676" type="line" smooth="yes"/>
			<point x="362" y="701"/>
			<point x="342" y="727"/>
			<point x="316" y="727" type="curve" smooth="yes"/>
			<point x="298" y="727"/>
			<point x="282" y="715"/>
			<point x="278" y="698" type="curve" smooth="yes"/>
			<point x="42" y="-114" type="line" smooth="yes"/>
			<point x="34" y="-139"/>
			<point x="54" y="-165"/>
			<point x="80" y="-165" type="curve" smooth="yes"/>
			<point x="98" y="-165"/>
			<point x="114" y="-153"/>
		</contour>
	</outline>
</glyph>
<glyph name="two" format="2">
	<advance width="620"/>
	<unicode hex="0032"/>
	<outline>
		<contour>
			<point x="120" y="0" type="curve" smooth="yes"/>
			<point x="511" y="0" type="line" smooth="yes" name="💚"/>
			<point x="533" y="0"/>
			<point x="551" y="18"/>
			<point x="551" y="40" type="curve" smooth="yes"/>
			<point x="551" y="62"/>
			<point x="533" y="80"/>
			<point x="511" y="80" type="curve" smooth="yes"/>
			<point x="163" y="80" type="line" smooth="yes"/>
			<point x="149" y="80"/>
			<point x="147" y="80"/>
			<point x="148" y="82" type="curve" smooth="yes"/>
			<point x="172" y="129"/>
			<point x="217" y="176"/>
			<point x="277" y="220" type="curve" smooth="yes"/>
			<point x="382" y="297"/>
			<point x="523" y="375"/>
			<point x="523" y="522" type="curve" smooth="yes"/>
			<point x="523" y="655"/>
			<point x="408" y="717"/>
			<point x="299" y="717" type="curve" smooth="yes"/>
			<point x="190" y="717"/>
			<point x="60" y="654"/>
			<point x="60" y="506" type="curve" smooth="yes"/>
			<point x="60" y="484"/>
			<point x="78" y="466"/>
			<point x="100" y="466" type="curve" smooth="yes"/>
			<point x="122" y="466"/>
			<point x="140" y="484"/>
			<point x="140" y="506" type="curve" smooth="yes"/>
			<point x="140" y="599"/>
			<point x="227" y="639"/>
			<point x="302" y="639" type="curve" smooth="yes"/>
			<point x="374" y="639"/>
			<point x="441" y="602"/>
			<point x="441" y="521" type="curve" smooth="yes"/>
			<point x="441" y="421"/>
			<point x="337" y="363"/>
			<point x="231" y="284" type="curve" smooth="yes"/>
			<point x="147" y="222"/>
			<point x="62" y="145"/>
			<point x="62" y="64" type="curve" smooth="yes"/>
			<point x="62" y="23"/>
			<point x="86" y="0"/>
		</contour>
	</outline>
</glyph>
<glyph name="three" format="2">
	<advance width="620"/>
	<unicode hex="0033"/>
	<outline>
		<contour>
			<point x="296" y="-15" type="curve" smooth="yes"/>
			<point x="420" y="-15"/>
			<point x="554" y="67"/>
			<point x="554" y="232" type="curve" smooth="yes"/>
			<point x="554" y="391"/>
			<point x="413" y="463"/>
			<point x="315" y="460" type="curve"/>
			<point x="277" y="451" type="line"/>
			<point x="269" y="426" type="line"/>
			<point x="466" y="593" type="line" smooth="yes"/>
			<point x="486" y="610"/>
			<point x="494" y="624"/>
			<point x="494" y="647" type="curve" smooth="yes"/>
			<point x="494" y="655" type="line" smooth="yes"/>
			<point x="494" y="680"/>
			<point x="474" y="700"/>
			<point x="449" y="700" type="curve" smooth="yes"/>
			<point x="116" y="700" type="line" smooth="yes"/>
			<point x="94" y="700"/>
			<point x="76" y="682"/>
			<point x="76" y="660" type="curve" smooth="yes"/>
			<point x="76" y="638"/>
			<point x="94" y="623"/>
			<point x="116" y="623" type="curve" smooth="yes"/>
			<point x="462" y="623" type="line"/>
			<point x="416" y="656" type="line"/>
			<point x="193" y="459" type="line" smooth="yes"/>
			<point x="181" y="449"/>
			<point x="172" y="435"/>
			<point x="172" y="416" type="curve" smooth="yes"/>
			<point x="172" y="397"/>
			<point x="186" y="375"/>
			<point x="216" y="375" type="curve" smooth="yes"/>
			<point x="232" y="375"/>
			<point x="254" y="383"/>
			<point x="304" y="383" type="curve" smooth="yes"/>
			<point x="363" y="383"/>
			<point x="474" y="348"/>
			<point x="474" y="232" type="curve" smooth="yes"/>
			<point x="474" y="117"/>
			<point x="393" y="65"/>
			<point x="296" y="65" type="curve" smooth="yes"/>
			<point x="177" y="65"/>
			<point x="133" y="150"/>
			<point x="123" y="195" type="curve" smooth="yes"/>
			<point x="118" y="217"/>
			<point x="105" y="235"/>
			<point x="83" y="235" type="curve" smooth="yes"/>
			<point x="61" y="235"/>
			<point x="40" y="217"/>
			<point x="43" y="195" type="curve" smooth="yes"/>
			<point x="54" y="117"/>
			<point x="123" y="-15"/>
		</contour>
	</outline>
</glyph>
<glyph name="seven" format="2">
	<advance width="620"/>
	<unicode hex="0037"/>
	<outline>
		<contour>
			<point x="80" y="620" type="curve" smooth="yes"/>
			<point x="467" y="620" type="line"/>
			<point x="467" y="645" type="line"/>
			<point x="382" y="582"/>
			<point x="207" y="397"/>
			<point x="207" y="33" type="curve" smooth="yes"/>
			<point x="207" y="11"/>
			<point x="225" y="-7"/>
			<point x="247" y="-7" type="curve" smooth="yes"/>
			<point x="269" y="-7"/>
			<point x="287" y="11"/>
			<point x="287" y="33" type="curve" smooth="yes"/>
			<point x="287" y="406"/>
			<point x="495" y="569"/>
			<point x="516" y="589" type="curve" smooth="yes"/>
			<point x="538" y="610"/>
			<point x="548" y="631"/>
			<point x="548" y="651" type="curve" smooth="yes"/>
			<point x="548" y="680"/>
			<point x="528" y="700"/>
			<point x="498" y="700" type="curve" smooth="yes"/>
			<point x="80" y="700" type="line" smooth="yes"/>
			<point x="58" y="700"/>
			<point x="40" y="682"/>
			<point x="40" y="660" type="curve" smooth="yes"/>
			<point x="40" y="638"/>
			<point x="58" y="620"/>
		</contour>
	</outline>
</glyph>
<glyph name="equal" format="2">
	<advance width="539"/>
	<unicode hex="003D"/>
	<outline>
		<contour>
			<point x="458" y="302" type="curve" smooth="yes"/>
			<point x="77" y="302" type="line" smooth="yes"/>
			<point x="57" y="302"/>
			<point x="40" y="285"/>
			<point x="40" y="265" type="curve" smooth="yes"/>
			<point x="40" y="245"/>
			<point x="57" y="228"/>
			<point x="77" y="228" type="curve" smooth="yes"/>
			<point x="458" y="228" type="line" smooth="yes"/>
			<point x="478" y="228"/>
			<point x="495" y="245"/>
			<point x="495" y="265" type="curve" smooth="yes"/>
			<point x="495" y="285"/>
			<point x="478" y="302"/>
		</contour>
		<contour>
			<point x="462" y="492" type="curve" smooth="yes"/>
			<point x="81" y="492" type="line" smooth="yes"/>
			<point x="61" y="492"/>
			<point x="44" y="475"/>
			<point x="44" y="455" type="curve" smooth="yes"/>
			<point x="44" y="435"/>
			<point x="61" y="418"/>
			<point x="81" y="418" type="curve" smooth="yes"/>
			<point x="462" y="418" type="line" smooth="yes"/>
			<point x="482" y="418"/>
			<point x="499" y="435"/>
			<point x="499" y="455" type="curve" smooth="yes"/>
			<point x="499" y="475"/>
			<point x="482" y="492"/>
		</contour>
	</outline>
</glyph>
<glyph name="greater" format="2">
	<advance width="545"/>
	<unicode hex="003E"/>
	<outline>
		<contour>
			<point x="90" y="62" type="curve" smooth="yes"/>
			<point x="497" y="303" type="line" smooth="yes"/>
			<point x="534" y="325"/>
			<point x="534" y="371"/>
			<point x="497" y="393" type="curve" smooth="yes"/>
			<point x="90" y="634" type="line" smooth="yes"/>
			<point x="84" y="638"/>
			<point x="77" y="640"/>
			<point x="70" y="640" type="curve" smooth="yes"/>
			<point x="48" y="640"/>
			<point x="30" y="622"/>
			<point x="30" y="600" type="curve" smooth="yes"/>
			<point x="30" y="585"/>
			<point x="38" y="573"/>
			<point x="50" y="566" type="curve" smooth="yes"/>
			<point x="459" y="323" type="line"/>
			<point x="441" y="332"/>
			<point x="441" y="364"/>
			<point x="459" y="373" type="curve"/>
			<point x="50" y="130" type="line" smooth="yes"/>
			<point x="38" y="123"/>
			<point x="30" y="111"/>
			<point x="30" y="96" type="curve" smooth="yes"/>
			<point x="30" y="74"/>
			<point x="48" y="56"/>
			<point x="70" y="56" type="curve" smooth="yes"/>
			<point x="77" y="56"/>
			<point x="84" y="58"/>
		</contour>
	</outline>
</glyph>
<glyph name="A" format="2">
	<advance width="608"/>
	<unicode hex="0041"/>
	<anchor x="304" y="0" name="bottom"/>
	<anchor x="519" y="0" name="ogonek"/>
	<anchor x="304" y="700" name="top"/>
	<outline>
		<contour>
			<point x="124" y="207" type="line"/>
			<point x="478" y="207" type="line"/>
			<point x="478" y="283" type="line"/>
			<point x="124" y="283" type="line"/>
		</contour>
		<contour>
			<point x="61" y="-10" type="curve" smooth="yes"/>
			<point x="78" y="-10"/>
			<point x="94" y="1"/>
			<point x="99" y="16" type="curve" smooth="yes"/>
			<point x="315" y="620" type="line"/>
			<point x="294" y="620" type="line"/>
			<point x="509" y="16" type="line" smooth="yes"/>
			<point x="514" y="1"/>
			<point x="530" y="-10"/>
			<point x="547" y="-10" type="curve" smooth="yes"/>
			<point x="580" y="-10"/>
			<point x="594" y="24"/>
			<point x="585" y="47" type="curve" smooth="yes"/>
			<point x="353" y="664" type="line" smooth="yes"/>
			<point x="341" y="695"/>
			<point x="323" y="710"/>
			<point x="304" y="710" type="curve" smooth="yes"/>
			<point x="285" y="710"/>
			<point x="267" y="695"/>
			<point x="255" y="664" type="curve" smooth="yes"/>
			<point x="23" y="47" type="line" smooth="yes"/>
			<point x="14" y="24"/>
			<point x="28" y="-10"/>
		</contour>
	</outline>
</glyph>
<glyph name="C" format="2">
	<advance width="611"/>
	<unicode hex="0043"/>
	<anchor x="329" y="0" name="bottom"/>
	<anchor x="327" y="700" name="top"/>
	<outline>
		<contour>
			<point x="328" y="-15" type="curve" smooth="yes"/>
			<point x="450" y="-15"/>
			<point x="531" y="61"/>
			<point x="559" y="183" type="curve" smooth="yes"/>
			<point x="566" y="213"/>
			<point x="550" y="238"/>
			<point x="522" y="238" type="curve" smooth="yes"/>
			<point x="505" y="238"/>
			<point x="489" y="229"/>
			<point x="484" y="201" type="curve" smooth="yes"/>
			<point x="469" y="114"/>
			<point x="414" y="60"/>
			<point x="329" y="60" type="curve" smooth="yes"/>
			<point x="206" y="60"/>
			<point x="138" y="176"/>
			<point x="138" y="350" type="curve" smooth="yes"/>
			<point x="138" y="523"/>
			<point x="220" y="640"/>
			<point x="328" y="640" type="curve" smooth="yes"/>
			<point x="407" y="640"/>
			<point x="454" y="587"/>
			<point x="471" y="544" type="curve" smooth="yes"/>
			<point x="480" y="521"/>
			<point x="494" y="510"/>
			<point x="513" y="510" type="curve" smooth="yes"/>
			<point x="538" y="510"/>
			<point x="555" y="528"/>
			<point x="549" y="563" type="curve" smooth="yes"/>
			<point x="539" y="621"/>
			<point x="466" y="715"/>
			<point x="328" y="715" type="curve" smooth="yes"/>
			<point x="166" y="715"/>
			<point x="56" y="574"/>
			<point x="56" y="348" type="curve" smooth="yes"/>
			<point x="56" y="131"/>
			<point x="159" y="-15"/>
		</contour>
	</outline>
</glyph>
<glyph name="G" format="2">
	<advance width="616"/>
	<unicode hex="0047"/>
	<anchor x="320" y="0" name="bottom"/>
	<anchor x="331" y="700" name="top"/>
	<outline>
		<contour>
			<point x="339" y="640" type="curve" smooth="yes"/>
			<point x="434" y="640"/>
			<point x="473" y="587"/>
			<point x="482" y="531" type="curve" smooth="yes"/>
			<point x="485" y="512"/>
			<point x="501" y="497"/>
			<point x="521" y="497" type="curve" smooth="yes"/>
			<point x="546" y="497"/>
			<point x="565" y="520"/>
			<point x="561" y="545" type="curve" smooth="yes"/>
			<point x="548" y="626"/>
			<point x="479" y="715"/>
			<point x="339" y="715" type="curve" smooth="yes"/>
			<point x="118" y="715"/>
			<point x="54" y="499"/>
			<point x="54" y="347" type="curve" smooth="yes"/>
			<point x="54" y="119"/>
			<point x="161" y="-17"/>
			<point x="348" y="-15" type="curve" smooth="yes"/>
			<point x="430" y="-14"/>
			<point x="498" y="11"/>
			<point x="559" y="96" type="curve"/>
			<point x="559" y="315" type="line" smooth="yes"/>
			<point x="559" y="339"/>
			<point x="546" y="356"/>
			<point x="527" y="356" type="curve" smooth="yes"/>
			<point x="371" y="358" type="line" smooth="yes"/>
			<point x="349" y="358"/>
			<point x="331" y="341"/>
			<point x="331" y="319" type="curve" smooth="yes"/>
			<point x="331" y="298"/>
			<point x="348" y="280"/>
			<point x="369" y="280" type="curve" smooth="yes"/>
			<point x="478" y="280" type="line"/>
			<point x="478" y="120" type="line"/>
			<point x="441" y="81"/>
			<point x="409" y="60"/>
			<point x="355" y="60" type="curve" smooth="yes"/>
			<point x="208" y="60"/>
			<point x="136" y="171"/>
			<point x="136" y="352" type="curve" smooth="yes"/>
			<point x="136" y="473"/>
			<point x="181" y="640"/>
		</contour>
	</outline>
</glyph>
<glyph name="W" format="2">
	<advance width="821"/>
	<unicode hex="0057"/>
	<anchor x="411" y="0" name="bottom"/>
	<anchor x="411" y="700" name="top"/>
	<outline>
		<contour>
			<point x="217" y="-15" type="curve" smooth="yes"/>
			<point x="236" y="-15"/>
			<point x="257" y="0"/>
			<point x="266" y="31" type="curve" smooth="yes"/>
			<point x="419" y="573" type="line"/>
			<point x="399" y="573" type="line"/>
			<point x="555" y="31" type="line" smooth="yes"/>
			<point x="564" y="0"/>
			<point x="585" y="-15"/>
			<point x="604" y="-15" type="curve" smooth="yes"/>
			<point x="623" y="-15"/>
			<point x="646" y="0"/>
			<point x="653" y="31" type="curve" smooth="yes"/>
			<point x="799" y="663" type="line" smooth="yes"/>
			<point x="800" y="667"/>
			<point x="801" y="671"/>
			<point x="801" y="676" type="curve" smooth="yes"/>
			<point x="801" y="698"/>
			<point x="782" y="715"/>
			<point x="760" y="715" type="curve" smooth="yes"/>
			<point x="743" y="715"/>
			<point x="726" y="704"/>
			<point x="723" y="689" type="curve" smooth="yes"/>
			<point x="590" y="99" type="line"/>
			<point x="615" y="100" type="line"/>
			<point x="451" y="679" type="line" smooth="yes"/>
			<point x="445" y="700"/>
			<point x="428" y="715"/>
			<point x="409" y="715" type="curve" smooth="yes"/>
			<point x="391" y="715"/>
			<point x="374" y="700"/>
			<point x="368" y="679" type="curve" smooth="yes"/>
			<point x="207" y="100" type="line"/>
			<point x="231" y="99" type="line"/>
			<point x="98" y="689" type="line" smooth="yes"/>
			<point x="95" y="704"/>
			<point x="78" y="715"/>
			<point x="61" y="715" type="curve" smooth="yes"/>
			<point x="39" y="715"/>
			<point x="20" y="698"/>
			<point x="20" y="676" type="curve" smooth="yes"/>
			<point x="20" y="671"/>
			<point x="21" y="667"/>
			<point x="22" y="663" type="curve" smooth="yes"/>
			<point x="168" y="31" type="line" smooth="yes"/>
			<point x="175" y="0"/>
			<point x="198" y="-15"/>
		</contour>
	</outline>
</glyph>
<glyph name="underscore" format="2">
	<advance width="498"/>
	<unicode hex="005F"/>
	<outline>
		<contour>
			<point x="474" y="-39" type="move"/>
			<point x="24" y="-39" type="line"/>
		</contour>
	</outline>
</glyph>
<glyph name="h" format="2">
	<advance width="550"/>
	<unicode hex="0068"/>
	<guideline x="491" y="-10" angle="0"/>
	<anchor x="273" y="0" name="bottom"/>
	<anchor x="273" y="360" name="center"/>
	<anchor x="273" y="720" name="top"/>
	<outline>
		<contour>
			<point x="150" y="30" type="curve" smooth="yes"/>
			<point x="150" y="690" type="line" smooth="yes"/>
			<point x="150" y="712"/>
			<point x="132" y="730"/>
			<point x="110" y="730" type="curve" smooth="yes"/>
			<point x="88" y="730"/>
			<point x="70" y="712"/>
			<point x="70" y="690" type="curve" smooth="yes"/>
			<point x="70" y="30" type="line" smooth="yes"/>
			<point x="70" y="8"/>
			<point x="88" y="-10"/>
			<point x="110" y="-10" type="curve" smooth="yes"/>
			<point x="132" y="-10"/>
			<point x="150" y="8"/>
		</contour>
		<contour>
			<point x="139" y="449" type="curve"/>
			<point x="139" y="353" type="line"/>
			<point x="150" y="353" type="line"/>
			<point x="150" y="405"/>
			<point x="215" y="454"/>
			<point x="292" y="454" type="curve" smooth="yes"/>
			<point x="362" y="454"/>
			<point x="409" y="413"/>
			<point x="409" y="340" type="curve" smooth="yes"/>
			<point x="409" y="30" type="line" smooth="yes"/>
			<point x="409" y="8"/>
			<point x="427" y="-10"/>
			<point x="449" y="-10" type="curve" smooth="yes"/>
			<point x="471" y="-10"/>
			<point x="488" y="8"/>
			<point x="488" y="30" type="curve" smooth="yes"/>
			<point x="490" y="342" type="line" smooth="yes"/>
			<point x="491" y="455"/>
			<point x="413" y="530"/>
			<point x="302" y="530" type="curve" smooth="yes"/>
			<point x="232" y="530"/>
			<point x="174" y="500"/>
		</contour>
	</outline>
</glyph>
<glyph name="k" format="2">
	<advance width="501"/>
	<unicode hex="006B"/>
	<anchor x="261" y="0" name="bottom"/>
	<anchor x="261" y="720" name="top"/>
	<outline>
		<contour>
			<point x="150" y="40" type="curve" smooth="yes"/>
			<point x="150" y="680" type="line" smooth="yes"/>
			<point x="150" y="702"/>
			<point x="132" y="720"/>
			<point x="110" y="720" type="curve" smooth="yes"/>
			<point x="88" y="720"/>
			<point x="70" y="702"/>
			<point x="70" y="680" type="curve" smooth="yes"/>
			<point x="70" y="40" type="line" smooth="yes"/>
			<point x="70" y="18"/>
			<point x="88" y="0"/>
			<point x="110" y="0" type="curve" smooth="yes"/>
			<point x="132" y="0"/>
			<point x="150" y="18"/>
		</contour>
		<contour>
			<point x="379" y="506" type="curve" smooth="yes"/>
			<point x="143" y="311" type="line"/>
			<point x="143" y="207" type="line"/>
			<point x="431" y="445" type="line" smooth="yes"/>
			<point x="440" y="452"/>
			<point x="445" y="464"/>
			<point x="445" y="476" type="curve" smooth="yes"/>
			<point x="445" y="498"/>
			<point x="427" y="515"/>
			<point x="405" y="515" type="curve" smooth="yes"/>
			<point x="395" y="515"/>
			<point x="386" y="512"/>
		</contour>
		<contour>
			<point x="431" y="0" type="curve" smooth="yes"/>
			<point x="453" y="0"/>
			<point x="471" y="18"/>
			<point x="471" y="40" type="curve" smooth="yes"/>
			<point x="471" y="49"/>
			<point x="467" y="57"/>
			<point x="463" y="63" type="curve" smooth="yes"/>
			<point x="256" y="352" type="line"/>
			<point x="195" y="302" type="line"/>
			<point x="399" y="17" type="line" smooth="yes"/>
			<point x="406" y="7"/>
			<point x="418" y="0"/>
		</contour>
	</outline>
</glyph>
<glyph name="u" format="2">
	<advance width="547"/>
	<unicode hex="0075"/>
	<anchor x="274" y="0" name="bottom"/>
	<anchor x="482" y="52" name="ogonek"/>
	<anchor x="274" y="515" name="top"/>
	<anchor x="527" y="515" name="topright"/>
	<outline>
		<contour>
			<point x="437" y="-10" type="curve" smooth="yes"/>
			<point x="459" y="-10"/>
			<point x="477" y="8"/>
			<point x="477" y="30" type="curve" smooth="yes"/>
			<point x="477" y="485" type="line" smooth="yes"/>
			<point x="477" y="507"/>
			<point x="459" y="525"/>
			<point x="437" y="525" type="curve" smooth="yes"/>
			<point x="415" y="525"/>
			<point x="397" y="507"/>
			<point x="397" y="485" type="curve" smooth="yes"/>
			<point x="397" y="30" type="line" smooth="yes"/>
			<point x="397" y="8"/>
			<point x="415" y="-10"/>
		</contour>
		<contour>
			<point x="248" y="-15" type="curve" smooth="yes"/>
			<point x="315" y="-15"/>
			<point x="372" y="15"/>
			<point x="408" y="66" type="curve"/>
			<point x="408" y="162" type="line"/>
			<point x="397" y="162" type="line"/>
			<point x="397" y="112"/>
			<point x="329" y="64"/>
			<point x="250" y="64" type="curve" smooth="yes"/>
			<point x="184" y="64"/>
			<point x="140" y="98"/>
			<point x="140" y="191" type="curve" smooth="yes"/>
			<point x="140" y="485" type="line" smooth="yes"/>
			<point x="140" y="507"/>
			<point x="122" y="525"/>
			<point x="100" y="525" type="curve" smooth="yes"/>
			<point x="78" y="525"/>
			<point x="60" y="507"/>
			<point x="60" y="485" type="curve" smooth="yes"/>
			<point x="60" y="191" type="line" smooth="yes"/>
			<point x="60" y="39"/>
			<point x="158" y="-15"/>
		</contour>
	</outline>
</glyph>
<glyph name="y" format="2">
	<advance width="490"/>
	<unicode hex="0079"/>
	<anchor x="249" y="0" name="bottom"/>
	<anchor x="249" y="515" name="top"/>
	<outline>
		<contour>
			<point x="41" y="471" type="curve" smooth="yes"/>
			<point x="214" y="12" type="line"/>
			<point x="259" y="110" type="line"/>
			<point x="115" y="499" type="line" smooth="yes"/>
			<point x="109" y="516"/>
			<point x="96" y="525"/>
			<point x="78" y="525" type="curve" smooth="yes" name="❌"/>
			<point x="49" y="525"/>
			<point x="32" y="496"/>
		</contour>
		<contour>
			<point x="383" y="499" type="curve" smooth="yes"/>
			<point x="176" y="-57" type="line"/>
			<point x="164" y="-88"/>
			<point x="151" y="-105"/>
			<point x="131" y="-105" type="curve" smooth="yes"/>
			<point x="114" y="-105"/>
			<point x="102" y="-93"/>
			<point x="91" y="-82" type="curve" smooth="yes"/>
			<point x="85" y="-76"/>
			<point x="77" y="-71"/>
			<point x="65" y="-71" type="curve" smooth="yes"/>
			<point x="43" y="-71"/>
			<point x="30" y="-89"/>
			<point x="30" y="-110" type="curve" smooth="yes"/>
			<point x="30" y="-148"/>
			<point x="74" y="-185"/>
			<point x="129" y="-185" type="curve" smooth="yes"/>
			<point x="175" y="-185"/>
			<point x="219" y="-159"/>
			<point x="251" y="-75" type="curve" smooth="yes"/>
			<point x="456" y="471" type="line" smooth="yes"/>
			<point x="467" y="501"/>
			<point x="451" y="525"/>
			<point x="423" y="525" type="curve" smooth="yes" name="❌"/>
			<point x="402" y="525"/>
			<point x="389" y="514"/>
		</contour>
	</outline>
</glyph>
<glyph name="braceleft" format="2">
	<advance width="330"/>
	<unicode hex="007B"/>
	<outline>
		<contour>
			<point x="250" y="-105" type="curve" smooth="yes"/>
			<point x="232" y="-105" type="line" smooth="yes"/>
			<point x="201" y="-105"/>
			<point x="179" y="-79"/>
			<point x="179" y="-38" type="curve" smooth="yes"/>
			<point x="179" y="200" type="line" smooth="yes"/>
			<point x="179" y="274"/>
			<point x="136" y="315"/>
			<point x="114" y="335" type="curve"/>
			<point x="115" y="304" type="line"/>
			<point x="135" y="322"/>
			<point x="179" y="360"/>
			<point x="179" y="432" type="curve" smooth="yes"/>
			<point x="179" y="649" type="line" smooth="yes"/>
			<point x="179" y="690"/>
			<point x="201" y="716"/>
			<point x="232" y="716" type="curve" smooth="yes"/>
			<point x="250" y="716" type="line" smooth="yes"/>
			<point x="272" y="716"/>
			<point x="290" y="734"/>
			<point x="290" y="756" type="curve" smooth="yes"/>
			<point x="290" y="778"/>
			<point x="272" y="796"/>
			<point x="250" y="796" type="curve" smooth="yes"/>
			<point x="232" y="796" type="line" smooth="yes"/>
			<point x="159" y="796"/>
			<point x="99" y="725"/>
			<point x="99" y="649" type="curve" smooth="yes"/>
			<point x="99" y="432" type="line" smooth="yes"/>
			<point x="99" y="397"/>
			<point x="81" y="382"/>
			<point x="61" y="364" type="curve" smooth="yes"/>
			<point x="33" y="339"/>
			<point x="34" y="299"/>
			<point x="60" y="275" type="curve" smooth="yes"/>
			<point x="81" y="257"/>
			<point x="99" y="239"/>
			<point x="99" y="200" type="curve" smooth="yes"/>
			<point x="99" y="-38" type="line" smooth="yes"/>
			<point x="99" y="-114"/>
			<point x="159" y="-185"/>
			<point x="232" y="-185" type="curve" smooth="yes"/>
			<point x="250" y="-185" type="line" smooth="yes"/>
			<point x="272" y="-185"/>
			<point x="290" y="-167"/>
			<point x="290" y="-145" type="curve" smooth="yes"/>
			<point x="290" y="-123"/>
			<point x="272" y="-105"/>
		</contour>
	</outline>
</glyph>
<glyph name="asciitilde" format="2">
	<advance width="532"/>
	<unicode hex="007E"/>
	<outline>
		<contour>
			<point x="376" y="310" type="curve" smooth="yes"/>
			<point x="425" y="310"/>
			<point x="471" y="337"/>
			<point x="499" y="394" type="curve" smooth="yes"/>
			<point x="501" y="398"/>
			<point x="502" y="403"/>
			<point x="502" y="408" type="curve" smooth="yes"/>
			<point x="502" y="429"/>
			<point x="485" y="446"/>
			<point x="464" y="446" type="curve" smooth="yes"/>
			<point x="448" y="446"/>
			<point x="435" y="436"/>
			<point x="429" y="422" type="curve" smooth="yes"/>
			<point x="420" y="401"/>
			<point x="401" y="386"/>
			<point x="375" y="386" type="curve" smooth="yes"/>
			<point x="338" y="386"/>
			<point x="308" y="400"/>
			<point x="271" y="418" type="curve" smooth="yes"/>
			<point x="238" y="434"/>
			<point x="197" y="452"/>
			<point x="155" y="452" type="curve" smooth="yes"/>
			<point x="106" y="452"/>
			<point x="61" y="425"/>
			<point x="33" y="368" type="curve" smooth="yes"/>
			<point x="31" y="364"/>
			<point x="30" y="359"/>
			<point x="30" y="354" type="curve" smooth="yes"/>
			<point x="30" y="333"/>
			<point x="47" y="316"/>
			<point x="68" y="316" type="curve" smooth="yes"/>
			<point x="84" y="316"/>
			<point x="97" y="326"/>
			<point x="103" y="340" type="curve" smooth="yes"/>
			<point x="112" y="361"/>
			<point x="131" y="376"/>
			<point x="157" y="376" type="curve" smooth="yes"/>
			<point x="181" y="376"/>
			<point x="205" y="365"/>
			<point x="239" y="349" type="curve" smooth="yes"/>
			<point x="275" y="332"/>
			<point x="323" y="310"/>
		</contour>
	</outline>
</glyph>
<glyph name="exclamdown" format="2">
	<advance width="220"/>
	<unicode hex="00A1"/>
	<outline>
		<contour>
			<point x="152" y="-145" type="curve" smooth="yes"/>
			<point x="145" y="308" type="line"/>
			<point x="145" y="330"/>
			<point x="127" y="345"/>
			<point x="109" y="345" type="curve" smooth="yes"/>
			<point x="91" y="345"/>
			<point x="73" y="330"/>
			<point x="73" y="308" type="curve" smooth="yes"/>
			<point x="68" y="-145" type="line" smooth="yes"/>
			<point x="68" y="-167"/>
			<point x="86" y="-185"/>
			<point x="110" y="-185" type="curve" smooth="yes"/>
			<point x="134" y="-185"/>
			<point x="152" y="-167"/>
		</contour>
		<contour>
			<point x="110" y="405" type="curve" smooth="yes"/>
			<point x="77" y="405"/>
			<point x="55" y="427"/>
			<point x="55" y="468" type="curve" smooth="yes"/>
			<point x="55" y="508"/>
			<point x="77" y="530"/>
			<point x="110" y="530" type="curve" smooth="yes"/>
			<point x="143" y="530"/>
			<point x="165" y="508"/>
			<point x="165" y="468" type="curve" smooth="yes"/>
			<point x="165" y="427"/>
			<point x="143" y="405"/>
		</contour>
	</outline>
</glyph>
<glyph name="currency" format="2">
	<advance width="550"/>
	<unicode hex="00A4"/>
	<outline>
		<contour>
			<point x="276" y="167" type="curve" smooth="yes"/>
			<point x="361" y="167"/>
			<point x="430" y="236"/>
			<point x="430" y="322" type="curve" smooth="yes"/>
			<point x="430" y="407"/>
			<point x="361" y="476"/>
			<point x="276" y="476" type="curve" smooth="yes"/>
			<point x="190" y="476"/>
			<point x="121" y="407"/>
			<point x="121" y="322" type="curve" smooth="yes"/>
			<point x="121" y="236"/>
			<point x="190" y="167"/>
		</contour>
		<contour>
			<point x="57" y="543" type="move"/>
			<point x="174" y="423" type="line"/>
		</contour>
		<contour>
			<point x="374" y="225" type="move"/>
			<point x="496" y="103" type="line"/>
		</contour>
		<contour>
			<point x="494" y="541" type="move"/>
			<point x="374" y="424" type="line"/>
		</contour>
		<contour>
			<point x="176" y="224" type="move"/>
			<point x="54" y="102" type="line"/>
		</contour>
	</outline>
</glyph>
<glyph name="logicalnot" format="2">
	<advance width="533"/>
	<unicode hex="00AC"/>
	<outline>
		<contour>
			<point x="493" y="157" type="curve" smooth="yes"/>
			<point x="493" y="365" type="line" smooth="yes"/>
			<point x="493" y="390"/>
			<point x="474" y="409"/>
			<point x="449" y="409" type="curve" smooth="yes"/>
			<point x="79" y="409" type="line" smooth="yes"/>
			<point x="58" y="409"/>
			<point x="40" y="392"/>
			<point x="40" y="370" type="curve" smooth="yes"/>
			<point x="40" y="348"/>
			<point x="58" y="331"/>
			<point x="79" y="331" type="curve" smooth="yes"/>
			<point x="449" y="331" type="line"/>
			<point x="415" y="365" type="line"/>
			<point x="415" y="157" type="line" smooth="yes"/>
			<point x="415" y="136"/>
			<point x="432" y="118"/>
			<point x="454" y="118" type="curve" smooth="yes"/>
			<point x="476" y="118"/>
			<point x="493" y="136"/>
		</contour>
	</outline>
</glyph>
<glyph name="micro" format="2">
	<advance width="645"/>
	<unicode hex="00B5"/>
	<outline>
		<contour>
			<point x="150" y="191" type="curve" smooth="yes"/>
			<point x="150" y="485" type="line" smooth="yes"/>
			<point x="150" y="507"/>
			<point x="132" y="525"/>
			<point x="110" y="525" type="curve" smooth="yes"/>
			<point x="88" y="525"/>
			<point x="70" y="507"/>
			<point x="70" y="485" type="curve" smooth="yes"/>
			<point x="70" y="-130" type="line" smooth="yes"/>
			<point x="70" y="-152"/>
			<point x="87" y="-170"/>
			<point x="110" y="-170" type="curve" smooth="yes"/>
			<point x="132" y="-170"/>
			<point x="150" y="-152"/>
			<point x="150" y="-130" type="curve" smooth="yes"/>
			<point x="150" y="16" type="line"/>
			<point x="183" y="-6"/>
			<point x="223" y="-15"/>
			<point x="262" y="-15" type="curve" smooth="yes"/>
			<point x="336" y="-15"/>
			<point x="390" y="26"/>
			<point x="418" y="66" type="curve"/>
			<point x="418" y="172" type="line"/>
			<point x="407" y="162" type="line"/>
			<point x="407" y="112"/>
			<point x="342" y="64"/>
			<point x="269" y="64" type="curve" smooth="yes"/>
			<point x="194" y="64"/>
			<point x="150" y="98"/>
		</contour>
		<contour>
			<point x="487" y="111" type="curve" smooth="yes"/>
			<point x="487" y="485" type="line" smooth="yes"/>
			<point x="487" y="507"/>
			<point x="469" y="525"/>
			<point x="447" y="525" type="curve" smooth="yes"/>
			<point x="425" y="525"/>
			<point x="407" y="507"/>
			<point x="407" y="485" type="curve" smooth="yes"/>
			<point x="407" y="111" type="line" smooth="yes"/>
			<point x="407" y="24"/>
			<point x="454" y="-15"/>
			<point x="516" y="-15" type="curve" smooth="yes"/>
			<point x="542" y="-15"/>
			<point x="573" y="-6"/>
			<point x="592" y="15" type="curve" smooth="yes"/>
			<point x="601" y="25"/>
			<point x="605" y="34"/>
			<point x="605" y="48" type="curve" smooth="yes"/>
			<point x="605" y="67"/>
			<point x="589" y="85"/>
			<point x="567" y="85" type="curve" smooth="yes"/>
			<point x="555" y="85"/>
			<point x="545" y="80"/>
			<point x="539" y="75" type="curve" smooth="yes"/>
			<point x="529" y="66"/>
			<point x="520" y="65"/>
			<point x="513" y="65" type="curve" smooth="yes"/>
			<point x="490" y="65"/>
			<point x="487" y="82"/>
		</contour>
	</outline>
</glyph>
<glyph name="paragraph" format="2">
	<advance width="729"/>
	<unicode hex="00B6"/>
	<outline>
		<contour>
			<point x="340" y="796" type="move"/>
			<point x="340" y="-185" type="line"/>
		</contour>
		<contour>
			<point x="540" y="796" type="move"/>
			<point x="540" y="-185" type="line"/>
		</contour>
		<contour>
			<point x="655" y="763" type="move"/>
			<point x="270" y="762" type="line"/>
		</contour>
		<contour>
			<point x="303" y="283" type="curve"/>
			<point x="303" y="800" type="line"/>
			<point x="160" y="800"/>
			<point x="45" y="685"/>
			<point x="45" y="542" type="curve" smooth="yes"/>
			<point x="45" y="398"/>
			<point x="160" y="283"/>
		</contour>
	</outline>
</glyph>
<glyph name="AE" format="2">
	<advance width="843"/>
	<unicode hex="00C6"/>
	<anchor x="424" y="0" name="bottom"/>
	<anchor x="424" y="700" name="top"/>
	<outline>
		<contour>
			<point x="723" y="700" type="curve" smooth="yes"/>
			<point x="341" y="700" type="line" smooth="yes"/>
			<point x="322" y="700"/>
			<point x="306" y="686"/>
			<point x="292" y="654" type="curve" smooth="yes"/>
			<point x="23" y="52" type="line" smooth="yes"/>
			<point x="21" y="47"/>
			<point x="20" y="42"/>
			<point x="20" y="36" type="curve" smooth="yes"/>
			<point x="20" y="14"/>
			<point x="39" y="-5"/>
			<point x="61" y="-5" type="curve" smooth="yes"/>
			<point x="78" y="-5"/>
			<point x="93" y="6"/>
			<point x="99" y="21" type="curve" smooth="yes"/>
			<point x="358" y="616" type="line" smooth="yes"/>
			<point x="361" y="622"/>
			<point x="364" y="624"/>
			<point x="369" y="624" type="curve" smooth="yes"/>
			<point x="723" y="624" type="line" smooth="yes"/>
			<point x="744" y="624"/>
			<point x="761" y="641"/>
			<point x="761" y="662" type="curve" smooth="yes"/>
			<point x="761" y="683"/>
			<point x="744" y="700"/>
		</contour>
		<contour>
			<point x="164" y="209" type="line"/>
			<point x="458" y="209" type="line"/>
			<point x="458" y="283" type="line"/>
			<point x="164" y="283" type="line"/>
		</contour>
		<contour>
			<point x="702" y="402" type="curve" smooth="yes"/>
			<point x="426" y="402" type="line"/>
			<point x="426" y="326" type="line"/>
			<point x="702" y="326" type="line" smooth="yes"/>
			<point x="723" y="326"/>
			<point x="740" y="343"/>
			<point x="740" y="364" type="curve" smooth="yes"/>
			<point x="740" y="385"/>
			<point x="723" y="402"/>
		</contour>
		<contour>
			<point x="750" y="76" type="curve" smooth="yes"/>
			<point x="466" y="76" type="line"/>
			<point x="466" y="638" type="line"/>
			<point x="384" y="638" type="line"/>
			<point x="384" y="41" type="line" smooth="yes"/>
			<point x="384" y="18"/>
			<point x="402" y="0"/>
			<point x="425" y="0" type="curve" smooth="yes"/>
			<point x="750" y="0" type="line" smooth="yes"/>
			<point x="771" y="0"/>
			<point x="788" y="17"/>
			<point x="788" y="38" type="curve" smooth="yes"/>
			<point x="788" y="59"/>
			<point x="771" y="76"/>
		</contour>
	</outline>
</glyph>
<glyph name="multiply" format="2">
	<advance width="472"/>
	<unicode hex="00D7"/>
	<outline>
		<contour>
			<point x="105" y="167" type="curve" smooth="yes"/>
			<point x="422" y="484" type="line" smooth="yes"/>
			<point x="429" y="491"/>
			<point x="433" y="500"/>
			<point x="433" y="511" type="curve" smooth="yes"/>
			<point x="433" y="533"/>
			<point x="416" y="550"/>
			<point x="394" y="550" type="curve" smooth="yes"/>
			<point x="383" y="550"/>
			<point x="374" y="546"/>
			<point x="367" y="539" type="curve" smooth="yes"/>
			<point x="50" y="222" type="line" smooth="yes"/>
			<point x="43" y="215"/>
			<point x="39" y="206"/>
			<point x="39" y="195" type="curve" smooth="yes"/>
			<point x="39" y="173"/>
			<point x="56" y="156"/>
			<point x="78" y="156" type="curve" smooth="yes"/>
			<point x="89" y="156"/>
			<point x="98" y="160"/>
		</contour>
		<contour>
			<point x="50" y="484" type="curve" smooth="yes"/>
			<point x="367" y="167" type="line" smooth="yes"/>
			<point x="374" y="160"/>
			<point x="383" y="156"/>
			<point x="394" y="156" type="curve" smooth="yes"/>
			<point x="416" y="156"/>
			<point x="433" y="173"/>
			<point x="433" y="195" type="curve" smooth="yes"/>
			<point x="433" y="206"/>
			<point x="429" y="215"/>
			<point x="422" y="222" type="curve" smooth="yes"/>
			<point x="105" y="539" type="line" smooth="yes"/>
			<point x="98" y="546"/>
			<point x="89" y="550"/>
			<point x="78" y="550" type="curve" smooth="yes"/>
			<point x="56" y="550"/>
			<point x="39" y="533"/>
			<point x="39" y="511" type="curve" smooth="yes"/>
			<point x="39" y="500"/>
			<point x="43" y="491"/>
		</contour>
	</outline>
</glyph>
<glyph name="Thorn" format="2">
	<advance width="600"/>
	<unicode hex="00DE"/>
	<outline>
		<contour>
			<point x="121" y="153" type="line"/>
			<point x="374" y="153" type="line" smooth="yes"/>
			<point x="479" y="153"/>
			<point x="563" y="240"/>
			<point x="563" y="359" type="curve" smooth="yes"/>
			<point x="563" y="478"/>
			<point x="476" y="565"/>
			<point x="357" y="565" type="curve" smooth="yes"/>
			<point x="121" y="565" type="line"/>
			<point x="121" y="487" type="line"/>
			<point x="357" y="487" type="line" smooth="yes"/>
			<point x="433" y="487"/>
			<point x="482" y="435"/>
			<point x="482" y="359" type="curve" smooth="yes"/>
			<point x="482" y="283"/>
			<point x="433" y="231"/>
			<point x="357" y="231" type="curve" smooth="yes"/>
			<point x="121" y="231" type="line"/>
		</contour>
		<contour>
			<point x="162" y="36" type="curve" smooth="yes"/>
			<point x="162" y="673" type="line"/>
			<point x="162" y="696"/>
			<point x="144" y="714"/>
			<point x="121" y="714" type="curve" smooth="yes"/>
			<point x="98" y="714"/>
			<point x="80" y="696"/>
			<point x="80" y="673" type="curve" smooth="yes"/>
			<point x="80" y="36" type="line" smooth="yes"/>
			<point x="80" y="13"/>
			<point x="98" y="-5"/>
			<point x="121" y="-5" type="curve" smooth="yes"/>
			<point x="144" y="-5"/>
			<point x="162" y="13"/>
		</contour>
	</outline>
</glyph>
<glyph name="eth" format="2">
	<advance width="547"/>
	<unicode hex="00F0"/>
	<outline>
		<contour>
			<point x="402" y="221" type="curve" smooth="yes"/>
			<point x="402" y="122"/>
			<point x="346" y="64"/>
			<point x="259" y="64" type="curve" smooth="yes"/>
			<point x="172" y="64"/>
			<point x="116" y="122"/>
			<point x="116" y="221" type="curve" smooth="yes"/>
			<point x="116" y="318"/>
			<point x="172" y="375"/>
			<point x="259" y="375" type="curve" smooth="yes"/>
			<point x="346" y="375"/>
			<point x="402" y="318"/>
		</contour>
		<contour>
			<point x="429" y="660" type="move"/>
			<point x="146" y="524" type="line"/>
		</contour>
		<contour>
			<point x="35" y="221" type="curve" smooth="yes"/>
			<point x="35" y="85"/>
			<point x="134" y="-13"/>
			<point x="259" y="-13" type="curve" smooth="yes"/>
			<point x="383" y="-13"/>
			<point x="485" y="73"/>
			<point x="485" y="246" type="curve" smooth="yes"/>
			<point x="485" y="623"/>
			<point x="203" y="720"/>
			<point x="125" y="720" type="curve" smooth="yes"/>
			<point x="104" y="720"/>
			<point x="86" y="704"/>
			<point x="86" y="682" type="curve" smooth="yes"/>
			<point x="86" y="665"/>
			<point x="98" y="651"/>
			<point x="114" y="647" type="curve" smooth="yes"/>
			<point x="261" y="610"/>
			<point x="368" y="504"/>
			<point x="399" y="377" type="curve"/>
			<point x="410" y="394" type="line"/>
			<point x="370" y="430"/>
			<point x="317" y="452"/>
			<point x="259" y="452" type="curve" smooth="yes"/>
			<point x="134" y="452"/>
			<point x="35" y="355"/>
		</contour>
	</outline>
</glyph>
<glyph name="divide" format="2">
	<advance width="515"/>
	<unicode hex="00F7"/>
	<outline>
		<contour>
			<point x="307" y="527" type="curve" smooth="yes"/>
			<point x="307" y="551"/>
			<point x="287" y="572"/>
			<point x="262" y="572" type="curve" smooth="yes"/>
			<point x="237" y="572"/>
			<point x="217" y="551"/>
			<point x="217" y="527" type="curve" smooth="yes"/>
			<point x="217" y="502"/>
			<point x="237" y="482"/>
			<point x="262" y="482" type="curve" smooth="yes"/>
			<point x="287" y="482"/>
			<point x="307" y="502"/>
		</contour>
		<contour>
			<point x="436" y="398" type="curve" smooth="yes"/>
			<point x="79" y="398" type="line" smooth="yes"/>
			<point x="58" y="398"/>
			<point x="40" y="381"/>
			<point x="40" y="359" type="curve" smooth="yes"/>
			<point x="40" y="337"/>
			<point x="58" y="320"/>
			<point x="79" y="320" type="curve" smooth="yes"/>
			<point x="436" y="320" type="line" smooth="yes"/>
			<point x="457" y="320"/>
			<point x="475" y="337"/>
			<point x="475" y="359" type="curve" smooth="yes"/>
			<point x="475" y="381"/>
			<point x="457" y="398"/>
		</contour>
		<contour>
			<point x="307" y="194" type="curve" smooth="yes"/>
			<point x="307" y="218"/>
			<point x="287" y="239"/>
			<point x="262" y="239" type="curve" smooth="yes"/>
			<point x="237" y="239"/>
			<point x="217" y="218"/>
			<point x="217" y="194" type="curve" smooth="yes"/>
			<point x="217" y="169"/>
			<point x="237" y="149"/>
			<point x="262" y="149" type="curve" smooth="yes"/>
			<point x="287" y="149"/>
			<point x="307" y="169"/>
		</contour>
	</outline>
</glyph>
<glyph name="Aogonek" format="2">
	<advance width="619"/>
	<unicode hex="0104"/>
	<outline>
		<component base="A"/>
		<contour>
			<point x="538" y="-98" type="curve" smooth="yes"/>
			<point x="523" y="-113"/>
			<point x="515" y="-121"/>
			<point x="499" y="-121" type="curve" smooth="yes"/>
			<point x="479" y="-121"/>
			<point x="475" y="-108"/>
			<point x="475" y="-101" type="curve" smooth="yes"/>
			<point x="475" y="-59"/>
			<point x="608" y="-16"/>
			<point x="585" y="46" type="curve" smooth="yes"/>
			<point x="582" y="54" type="line"/>
			<point x="496" y="54" type="line"/>
			<point x="507" y="21" type="line" smooth="yes"/>
			<point x="516" y="-7"/>
			<point x="405" y="-31"/>
			<point x="405" y="-109" type="curve" smooth="yes"/>
			<point x="405" y="-160"/>
			<point x="450" y="-183"/>
			<point x="497" y="-185" type="curve" smooth="yes"/>
			<point x="523" y="-186"/>
			<point x="559" y="-181"/>
			<point x="589" y="-146" type="curve" smooth="yes"/>
			<point x="595" y="-139"/>
			<point x="599" y="-131"/>
			<point x="599" y="-121" type="curve" smooth="yes"/>
			<point x="599" y="-101"/>
			<point x="585" y="-87"/>
			<point x="565" y="-87" type="curve" smooth="yes"/>
			<point x="554" y="-87"/>
			<point x="545" y="-91"/>
		</contour>
	</outline>
</glyph>
<glyph name="aogonek" format="2">
	<advance width="511"/>
	<unicode hex="0105"/>
	<anchor x="389" y="8" name="_ogonek"/>
	<outline>
		<contour>
			<point x="120" y="143" type="curve" smooth="yes"/>
			<point x="120" y="184"/>
			<point x="155" y="229"/>
			<point x="237" y="229" type="curve" smooth="yes"/>
			<point x="300" y="229"/>
			<point x="352" y="256"/>
			<point x="371" y="276" type="curve"/>
			<point x="374" y="281"/>
			<point x="374" y="277"/>
			<point x="374" y="276" type="curve" smooth="yes"/>
			<point x="374" y="254" type="line"/>
			<point x="374" y="190" type="line" smooth="yes"/>
			<point x="374" y="118"/>
			<point x="305" y="63"/>
			<point x="225" y="62" type="curve" smooth="yes"/>
			<point x="144" y="61"/>
			<point x="120" y="109"/>
		</contour>
		<contour>
			<point x="381" y="68" type="curve" smooth="yes" name="💚"/>
			<point x="381" y="52" type="line"/>
			<point x="381" y="28" type="line" smooth="yes"/>
			<point x="381" y="6"/>
			<point x="395" y="-10"/>
			<point x="417" y="-10" type="curve" smooth="yes"/>
			<point x="439" y="-10"/>
			<point x="454" y="6"/>
			<point x="454" y="28" type="curve" smooth="yes"/>
			<point x="454" y="335" type="line" smooth="yes"/>
			<point x="454" y="435"/>
			<point x="417" y="530"/>
			<point x="266" y="530" type="curve" smooth="yes"/>
			<point x="156" y="530"/>
			<point x="100" y="462"/>
			<point x="83" y="424" type="curve" smooth="yes"/>
			<point x="72" y="400"/>
			<point x="82" y="368"/>
			<point x="117" y="368" type="curve" smooth="yes"/>
			<point x="136" y="368"/>
			<point x="146" y="377"/>
			<point x="156" y="395" type="curve" smooth="yes"/>
			<point x="169" y="418"/>
			<point x="201" y="453"/>
			<point x="267" y="453" type="curve" smooth="yes"/>
			<point x="347" y="453"/>
			<point x="372" y="411"/>
			<point x="372" y="369" type="curve" smooth="yes"/>
			<point x="372" y="322"/>
			<point x="331" y="305"/>
			<point x="236" y="304" type="curve" smooth="yes"/>
			<point x="103" y="303"/>
			<point x="40" y="220"/>
			<point x="40" y="138" type="curve" smooth="yes"/>
			<point x="40" y="58"/>
			<point x="100" y="-13"/>
			<point x="212" y="-15" type="curve" smooth="yes"/>
			<point x="273" y="-16"/>
			<point x="343" y="-2"/>
			<point x="378" y="68" type="curve" smooth="yes" name="💚"/>
			<point x="380" y="72"/>
			<point x="381" y="71"/>
		</contour>
		<component base="ogonekcomb" xOffset="232"/>
		<contour>
			<point x="385" y="64" type="move"/>
		</contour>
	</outline>
</glyph>
<glyph name="Hbar" format="2">
	<advance width="786"/>
	<unicode hex="0126"/>
	<outline>
		<component base="H" xOffset="60"/>
		<contour>
			<point x="64" y="510" type="move"/>
			<point x="722" y="510" type="line"/>
		</contour>
	</outline>
</glyph>
<glyph name="Iogonek" format="2">
	<advance width="242"/>
	<unicode hex="012E"/>
	<outline>
		<component base="I"/>
		<contour>
			<point x="143" y="-98" type="curve" smooth="yes"/>
			<point x="128" y="-113"/>
			<point x="120" y="-121"/>
			<point x="104" y="-121" type="curve" smooth="yes"/>
			<point x="84" y="-121"/>
			<point x="80" y="-109"/>
			<point x="80" y="-101" type="curve" smooth="yes"/>
			<point x="80" y="-60"/>
			<point x="162" y="-32"/>
			<point x="162" y="28" type="curve" smooth="yes"/>
			<point x="162" y="104" type="line"/>
			<point x="80" y="104" type="line"/>
			<point x="80" y="21" type="line" smooth="yes"/>
			<point x="80" y="-8"/>
			<point x="10" y="-31"/>
			<point x="10" y="-109" type="curve" smooth="yes"/>
			<point x="10" y="-160"/>
			<point x="55" y="-183"/>
			<point x="102" y="-185" type="curve" smooth="yes"/>
			<point x="128" y="-186"/>
			<point x="164" y="-181"/>
			<point x="194" y="-146" type="curve" smooth="yes"/>
			<point x="200" y="-139"/>
			<point x="204" y="-131"/>
			<point x="204" y="-121" type="curve" smooth="yes"/>
			<point x="204" y="-101"/>
			<point x="190" y="-87"/>
			<point x="170" y="-87" type="curve" smooth="yes"/>
			<point x="159" y="-87"/>
			<point x="150" y="-91"/>
		</contour>
	</outline>
</glyph>
<glyph name="IJ" format="2">
	<advance width="672"/>
	<unicode hex="0132"/>
	<outline>
		<contour>
			<point x="162" y="36" type="curve" smooth="yes"/>
			<point x="162" y="664" type="line" smooth="yes"/>
			<point x="162" y="687"/>
			<point x="144" y="705"/>
			<point x="121" y="705" type="curve" smooth="yes"/>
			<point x="98" y="705"/>
			<point x="80" y="687"/>
			<point x="80" y="664" type="curve" smooth="yes"/>
			<point x="80" y="36" type="line" smooth="yes"/>
			<point x="80" y="13"/>
			<point x="98" y="-5"/>
			<point x="121" y="-5" type="curve" smooth="yes"/>
			<point x="144" y="-5"/>
			<point x="162" y="13"/>
		</contour>
		<contour>
			<point x="227" y="187" type="curve" smooth="yes"/>
			<point x="227" y="170" type="line" smooth="yes"/>
			<point x="227" y="54"/>
			<point x="301" y="-30"/>
			<point x="404" y="-30" type="curve" smooth="yes"/>
			<point x="523" y="-30"/>
			<point x="592" y="46"/>
			<point x="592" y="176" type="curve" smooth="yes"/>
			<point x="592" y="664" type="line" smooth="yes"/>
			<point x="592" y="687"/>
			<point x="574" y="705"/>
			<point x="551" y="705" type="curve" smooth="yes"/>
			<point x="528" y="705"/>
			<point x="510" y="687"/>
			<point x="510" y="664" type="curve" smooth="yes"/>
			<point x="510" y="176" type="line" smooth="yes"/>
			<point x="510" y="96"/>
			<point x="471" y="49"/>
			<point x="404" y="49" type="curve" smooth="yes"/>
			<point x="344" y="49"/>
			<point x="309" y="93"/>
			<point x="309" y="170" type="curve" smooth="yes"/>
			<point x="309" y="187" type="line" smooth="yes"/>
			<point x="309" y="210"/>
			<point x="291" y="228"/>
			<point x="268" y="228" type="curve" smooth="yes"/>
			<point x="245" y="228"/>
			<point x="227" y="210"/>
		</contour>
	</outline>
</glyph>
<glyph name="kgreenlandic" format="2">
	<advance width="491"/>
	<unicode hex="0138"/>
	<outline>
		<contour>
			<point x="150" y="34" type="curve" smooth="yes"/>
			<point x="150" y="481" type="line" smooth="yes"/>
			<point x="150" y="503"/>
			<point x="132" y="521"/>
			<point x="110" y="521" type="curve" smooth="yes"/>
			<point x="88" y="521"/>
			<point x="70" y="503"/>
			<point x="70" y="481" type="curve" smooth="yes"/>
			<point x="70" y="34" type="line" smooth="yes"/>
			<point x="70" y="12"/>
			<point x="88" y="-6"/>
			<point x="110" y="-6" type="curve" smooth="yes"/>
			<point x="132" y="-6"/>
			<point x="150" y="12"/>
		</contour>
		<contour>
			<point x="368" y="497" type="curve" smooth="yes"/>
			<point x="143" y="259" type="line"/>
			<point x="143" y="150" type="line"/>
			<point x="431" y="445" type="line" smooth="yes"/>
			<point x="439" y="453"/>
			<point x="445" y="464"/>
			<point x="445" y="476" type="curve" smooth="yes"/>
			<point x="445" y="498"/>
			<point x="427" y="515"/>
			<point x="405" y="515" type="curve" smooth="yes"/>
			<point x="394" y="515"/>
			<point x="381" y="511"/>
		</contour>
		<contour>
			<point x="421" y="0" type="curve" smooth="yes"/>
			<point x="443" y="0"/>
			<point x="461" y="18"/>
			<point x="461" y="40" type="curve" smooth="yes"/>
			<point x="461" y="49"/>
			<point x="457" y="57"/>
			<point x="453" y="63" type="curve" smooth="yes"/>
			<point x="256" y="352" type="line"/>
			<point x="195" y="302" type="line"/>
			<point x="389" y="17" type="line" smooth="yes"/>
			<point x="396" y="7"/>
			<point x="408" y="0"/>
		</contour>
	</outline>
</glyph>
<glyph name="Lslash" format="2">
	<advance width="619"/>
	<unicode hex="0141"/>
	<outline>
		<contour>
			<point x="551" y="76" type="curve" smooth="yes"/>
			<point x="207" y="76" type="line"/>
			<point x="207" y="0" type="line"/>
			<point x="551" y="0" type="line" smooth="yes"/>
			<point x="572" y="0"/>
			<point x="589" y="17"/>
			<point x="589" y="38" type="curve" smooth="yes"/>
			<point x="589" y="59"/>
			<point x="572" y="76"/>
		</contour>
		<contour>
			<point x="206" y="0" type="curve" smooth="yes"/>
			<point x="247" y="0" type="line"/>
			<point x="247" y="664" type="line" smooth="yes"/>
			<point x="247" y="687"/>
			<point x="229" y="705"/>
			<point x="206" y="705" type="curve" smooth="yes"/>
			<point x="183" y="705"/>
			<point x="165" y="687"/>
			<point x="165" y="664" type="curve" smooth="yes"/>
			<point x="165" y="41" type="line" smooth="yes"/>
			<point x="165" y="18"/>
			<point x="183" y="0"/>
		</contour>
		<contour>
			<point x="48" y="287" type="move"/>
			<point x="421" y="478" type="line"/>
		</contour>
	</outline>
</glyph>
<glyph name="eng" format="2">
	<advance width="545"/>
	<unicode hex="014B"/>
	<anchor x="688" y="-170" name="bottom"/>
	<anchor x="688" y="515" name="top"/>
	<outline>
		<component base="n"/>
		<contour>
			<point x="489" y="-59" type="curve" smooth="yes"/>
			<point x="489" y="113" type="line"/>
			<point x="409" y="113" type="line"/>
			<point x="409" y="-59" type="line" smooth="yes"/>
			<point x="409" y="-88"/>
			<point x="406" y="-105"/>
			<point x="383" y="-105" type="curve" smooth="yes"/>
			<point x="376" y="-105"/>
			<point x="367" y="-104"/>
			<point x="357" y="-95" type="curve" smooth="yes"/>
			<point x="351" y="-90"/>
			<point x="341" y="-85"/>
			<point x="329" y="-85" type="curve" smooth="yes"/>
			<point x="307" y="-85"/>
			<point x="291" y="-103"/>
			<point x="291" y="-122" type="curve" smooth="yes"/>
			<point x="291" y="-136"/>
			<point x="295" y="-145"/>
			<point x="304" y="-155" type="curve" smooth="yes"/>
			<point x="323" y="-176"/>
			<point x="354" y="-185"/>
			<point x="380" y="-185" type="curve" smooth="yes"/>
			<point x="442" y="-185"/>
			<point x="489" y="-146"/>
		</contour>
	</outline>
</glyph>
<glyph name="Uogonek" format="2">
	<advance width="650"/>
	<unicode hex="0172"/>
	<outline>
		<component base="U"/>
		<contour>
			<point x="464" y="-98" type="curve" smooth="yes"/>
			<point x="449" y="-113"/>
			<point x="441" y="-121"/>
			<point x="425" y="-121" type="curve" smooth="yes"/>
			<point x="405" y="-121"/>
			<point x="401" y="-109"/>
			<point x="401" y="-99" type="curve" smooth="yes"/>
			<point x="401" y="-60"/>
			<point x="463" y="16"/>
			<point x="512" y="65" type="curve" smooth="yes"/>
			<point x="513" y="66" type="line"/>
			<point x="469" y="96" type="line"/>
			<point x="425" y="53" type="line" smooth="yes"/>
			<point x="420" y="48"/>
			<point x="331" y="-31"/>
			<point x="331" y="-109" type="curve" smooth="yes"/>
			<point x="331" y="-160"/>
			<point x="376" y="-183"/>
			<point x="423" y="-185" type="curve" smooth="yes"/>
			<point x="449" y="-186"/>
			<point x="485" y="-181"/>
			<point x="515" y="-146" type="curve" smooth="yes"/>
			<point x="521" y="-139"/>
			<point x="525" y="-131"/>
			<point x="525" y="-121" type="curve" smooth="yes"/>
			<point x="525" y="-101"/>
			<point x="511" y="-87"/>
			<point x="491" y="-87" type="curve" smooth="yes"/>
			<point x="480" y="-87"/>
			<point x="471" y="-91"/>
		</contour>
	</outline>
</glyph>
<glyph name="florin" format="2">
	<advance width="636"/>
	<unicode hex="0192"/>
	<anchor x="944" y="88" name="bottom"/>
	<anchor x="1115" y="108" name="ogonek"/>
	<anchor x="955" y="490" name="top"/>
	<outline>
		<contour>
			<point x="61" y="-2" type="curve" smooth="yes" name="💚"/>
			<point x="81" y="-6"/>
			<point x="104" y="-14"/>
			<point x="138" y="-14" type="curve" smooth="yes" name="💚"/>
			<point x="264" y="-14"/>
			<point x="316" y="84"/>
			<point x="330" y="192" type="curve" smooth="yes" name="💚"/>
			<point x="341" y="274"/>
			<point x="376" y="485"/>
			<point x="391" y="565" type="curve" smooth="yes" name="💚"/>
			<point x="401" y="620"/>
			<point x="450" y="637"/>
			<point x="494" y="637" type="curve" smooth="yes" name="💚"/>
			<point x="511" y="637"/>
			<point x="532" y="633"/>
			<point x="556" y="627" type="curve" smooth="yes" name="💚"/>
			<point x="581" y="621"/>
			<point x="606" y="640"/>
			<point x="606" y="666" type="curve" smooth="yes" name="💚"/>
			<point x="606" y="684"/>
			<point x="593" y="701"/>
			<point x="576" y="705" type="curve" smooth="yes" name="💚"/>
			<point x="548" y="712"/>
			<point x="517" y="717"/>
			<point x="494" y="717" type="curve" smooth="yes" name="💚"/>
			<point x="432" y="717"/>
			<point x="331" y="683"/>
			<point x="313" y="577" type="curve" smooth="yes" name="💚"/>
			<point x="300" y="499"/>
			<point x="262" y="286"/>
			<point x="250" y="204" type="curve" smooth="yes" name="💚"/>
			<point x="237" y="113"/>
			<point x="213" y="66"/>
			<point x="138" y="66" type="curve" smooth="yes" name="💚"/>
			<point x="116" y="66"/>
			<point x="103" y="70"/>
			<point x="79" y="76" type="curve" smooth="yes" name="💚"/>
			<point x="54" y="82"/>
			<point x="30" y="63"/>
			<point x="30" y="37" type="curve" smooth="yes" name="💚"/>
			<point x="30" y="18"/>
			<point x="43" y="2"/>
		</contour>
		<contour>
			<point x="511" y="412" type="curve" smooth="yes" name="💚"/>
			<point x="130" y="412" type="line" smooth="yes" name="💚"/>
			<point x="108" y="412"/>
			<point x="90" y="394"/>
			<point x="90" y="372" type="curve" smooth="yes" name="💚"/>
			<point x="90" y="350"/>
			<point x="108" y="332"/>
			<point x="130" y="332" type="curve" smooth="yes" name="💚"/>
			<point x="511" y="332" type="line" smooth="yes" name="💚"/>
			<point x="533" y="332"/>
			<point x="551" y="350"/>
			<point x="551" y="372" type="curve" smooth="yes" name="💚"/>
			<point x="551" y="394"/>
			<point x="533" y="412"/>
		</contour>
	</outline>
</glyph>
<glyph name="Uhorn" format="2">
	<advance width="600"/>
	<unicode hex="01AF"/>
	<anchor x="330" y="0" name="bottom"/>
	<anchor x="330" y="700" name="top"/>
	<outline>
		<contour>
			<point x="325" y="-14" type="curve" smooth="yes"/>
			<point x="471" y="-14"/>
			<point x="575" y="93"/>
			<point x="575" y="236" type="curve" smooth="yes"/>
			<point x="575" y="662" type="line" smooth="yes"/>
			<point x="575" y="685"/>
			<point x="557" y="703"/>
			<point x="534" y="703" type="curve" smooth="yes"/>
			<point x="511" y="703"/>
			<point x="493" y="685"/>
			<point x="493" y="662" type="curve" smooth="yes"/>
			<point x="493" y="236" type="line" smooth="yes"/>
			<point x="493" y="137"/>
			<point x="423" y="63"/>
			<point x="325" y="63" type="curve" smooth="yes"/>
			<point x="227" y="63"/>
			<point x="157" y="137"/>
			<point x="157" y="236" type="curve" smooth="yes"/>
			<point x="157" y="664" type="line" smooth="yes"/>
			<point x="157" y="687"/>
			<point x="139" y="705"/>
			<point x="116" y="705" type="curve" smooth="yes"/>
			<point x="93" y="705"/>
			<point x="75" y="687"/>
			<point x="75" y="664" type="curve" smooth="yes"/>
			<point x="75" y="236" type="line" smooth="yes"/>
			<point x="75" y="93"/>
			<point x="179" y="-14"/>
		</contour>
		<contour>
			<point x="536" y="653" type="line"/>
			<point x="575" y="653" type="line" smooth="yes"/>
			<point x="651" y="653"/>
			<point x="718" y="731"/>
			<point x="718" y="801" type="curve" smooth="yes"/>
			<point x="718" y="823"/>
			<point x="704" y="839"/>
			<point x="684" y="839" type="curve" smooth="yes"/>
			<point x="660" y="839"/>
			<point x="646" y="825"/>
			<point x="646" y="801" type="curve" smooth="yes" name="💚"/>
			<point x="646" y="748"/>
			<point x="598" y="703"/>
			<point x="538" y="703" type="curve" smooth="yes"/>
			<point x="536" y="703" type="line"/>
		</contour>
	</outline>
</glyph>
<glyph name="oogonek" format="2">
	<advance width="546"/>
	<unicode hex="01EB"/>
	<anchor x="273" y="0" name="bottom"/>
	<anchor x="273" y="258" name="center"/>
	<anchor x="309" y="10" name="ogonek"/>
	<anchor x="273" y="515" name="top"/>
	<anchor x="526" y="515" name="topright"/>
	<outline>
		<contour>
			<point x="426" y="259" type="curve" smooth="yes" name="💚"/>
			<point x="426" y="136"/>
			<point x="373" y="62"/>
			<point x="273" y="62" type="curve" smooth="yes"/>
			<point x="173" y="62"/>
			<point x="120" y="136"/>
			<point x="120" y="259" type="curve" smooth="yes"/>
			<point x="120" y="378"/>
			<point x="173" y="453"/>
			<point x="273" y="453" type="curve" smooth="yes"/>
			<point x="373" y="453"/>
			<point x="426" y="378"/>
		</contour>
		<contour>
			<point x="506" y="259" type="curve" smooth="yes"/>
			<point x="506" y="413"/>
			<point x="416" y="530"/>
			<point x="273" y="530" type="curve" smooth="yes"/>
			<point x="130" y="530"/>
			<point x="40" y="413"/>
			<point x="40" y="259" type="curve" smooth="yes"/>
			<point x="40" y="101"/>
			<point x="130" y="-15"/>
			<point x="273" y="-15" type="curve" smooth="yes"/>
			<point x="279" y="-15"/>
			<point x="284" y="-15"/>
			<point x="290" y="-14" type="curve"/>
			<point x="272" y="-35"/>
			<point x="257" y="-64"/>
			<point x="257" y="-100" type="curve" smooth="yes"/>
			<point x="257" y="-158"/>
			<point x="302" y="-181"/>
			<point x="349" y="-183" type="curve" smooth="yes"/>
			<point x="375" y="-184"/>
			<point x="411" y="-179"/>
			<point x="441" y="-144" type="curve" smooth="yes"/>
			<point x="447" y="-137"/>
			<point x="451" y="-129"/>
			<point x="451" y="-119" type="curve" smooth="yes"/>
			<point x="451" y="-99"/>
			<point x="437" y="-85"/>
			<point x="417" y="-85" type="curve" smooth="yes"/>
			<point x="406" y="-85"/>
			<point x="397" y="-89"/>
			<point x="390" y="-96" type="curve" smooth="yes"/>
			<point x="375" y="-111"/>
			<point x="367" y="-119"/>
			<point x="351" y="-119" type="curve" smooth="yes"/>
			<point x="331" y="-119"/>
			<point x="327" y="-107"/>
			<point x="327" y="-99" type="curve" smooth="yes"/>
			<point x="327" y="-58"/>
			<point x="367" y="-12"/>
			<point x="418" y="39" type="curve" smooth="yes"/>
			<point x="471" y="92"/>
			<point x="506" y="166"/>
		</contour>
	</outline>
</glyph>
<glyph name="acutecomb" format="2">
	<advance width="0"/>
	<unicode hex="0301"/>
	<anchor x="92" y="515" name="_top"/>
	<anchor x="112" y="768" name="top"/>
	<outline>
		<contour>
			<point x="55" y="591" type="curve" smooth="yes"/>
			<point x="71" y="580"/>
			<point x="97" y="586"/>
			<point x="112" y="606" type="curve" smooth="yes"/>
			<point x="192" y="714" type="line" smooth="yes"/>
			<point x="206" y="733"/>
			<point x="207" y="761"/>
			<point x="184" y="777" type="curve" smooth="yes"/>
			<point x="164" y="791"/>
			<point x="137" y="787"/>
			<point x="120" y="761" type="curve" smooth="yes"/>
			<point x="46" y="644" type="line" smooth="yes"/>
			<point x="35" y="627"/>
			<point x="39" y="602"/>
		</contour>
	</outline>
</glyph>
<glyph name="circumflexcomb" format="2">
	<advance width="0"/>
	<unicode hex="0302"/>
	<anchor x="186" y="515" name="_top"/>
	<anchor x="186" y="768" name="top"/>
	<outline>
		<contour>
			<point x="44" y="598" type="curve" smooth="yes"/>
			<point x="58" y="582"/>
			<point x="81" y="586"/>
			<point x="96" y="601" type="curve" smooth="yes"/>
			<point x="202" y="706" type="line"/>
			<point x="172" y="706" type="line"/>
			<point x="278" y="601" type="line" smooth="yes"/>
			<point x="294" y="585"/>
			<point x="316" y="583"/>
			<point x="332" y="599" type="curve" smooth="yes"/>
			<point x="346" y="613"/>
			<point x="348" y="635"/>
			<point x="334" y="649" type="curve" smooth="yes"/>
			<point x="228" y="762" type="line" smooth="yes"/>
			<point x="215" y="775"/>
			<point x="200" y="783"/>
			<point x="186" y="783" type="curve" smooth="yes"/>
			<point x="171" y="783"/>
			<point x="157" y="776"/>
			<point x="144" y="762" type="curve" smooth="yes"/>
			<point x="43" y="650" type="line" smooth="yes"/>
			<point x="28" y="633"/>
			<point x="32" y="611"/>
		</contour>
	</outline>
</glyph>
<glyph name="macroncomb" format="2">
	<advance width="0"/>
	<unicode hex="0304"/>
	<anchor x="194" y="515" name="_top"/>
	<anchor x="194" y="674" name="top"/>
	<outline>
		<contour>
			<point x="309" y="635" type="move"/>
			<point x="79" y="635" type="line"/>
		</contour>
	</outline>
</glyph>
<glyph name="hookabovecomb" format="2">
	<advance width="0"/>
	<unicode hex="0309"/>
	<anchor x="133" y="515" name="_top"/>
	<anchor x="127" y="773" name="top"/>
	<outline>
		<contour>
			<point x="156" y="584" type="curve" smooth="yes"/>
			<point x="199" y="613"/>
			<point x="232" y="646"/>
			<point x="232" y="693" type="curve" smooth="yes"/>
			<point x="232" y="741"/>
			<point x="192" y="783"/>
			<point x="137" y="783" type="curve" smooth="yes"/>
			<point x="84" y="783"/>
			<point x="40" y="747"/>
			<point x="40" y="714" type="curve" smooth="yes"/>
			<point x="40" y="694"/>
			<point x="55" y="679"/>
			<point x="75" y="679" type="curve" smooth="yes"/>
			<point x="88" y="679"/>
			<point x="99" y="686"/>
			<point x="105" y="697" type="curve" smooth="yes"/>
			<point x="112" y="709"/>
			<point x="121" y="719"/>
			<point x="137" y="719" type="curve" smooth="yes"/>
			<point x="155" y="719"/>
			<point x="162" y="707"/>
			<point x="162" y="695" type="curve" smooth="yes"/>
			<point x="162" y="676"/>
			<point x="146" y="657"/>
			<point x="115" y="634" type="curve" smooth="yes"/>
			<point x="107" y="628"/>
			<point x="101" y="618"/>
			<point x="101" y="606" type="curve" smooth="yes"/>
			<point x="101" y="587"/>
			<point x="115" y="577"/>
			<point x="133" y="577" type="curve" smooth="yes"/>
			<point x="142" y="577"/>
			<point x="150" y="580"/>
		</contour>
	</outline>
</glyph>
<glyph name="commaturnedabovecomb" format="2">
	<advance width="0"/>
	<unicode hex="0312"/>
	<anchor x="119" y="515" name="_top"/>
	<anchor x="119" y="838" name="top"/>
	<outline>
		<contour>
			<point x="121" y="750" type="curve" smooth="yes"/>
			<point x="49" y="656" type="line" smooth="yes"/>
			<point x="43" y="648"/>
			<point x="40" y="638"/>
			<point x="40" y="629" type="curve" smooth="yes"/>
			<point x="40" y="604"/>
			<point x="55" y="588"/>
			<point x="83" y="588" type="curve" smooth="yes"/>
			<point x="100" y="588"/>
			<point x="113" y="598"/>
			<point x="121" y="612" type="curve" smooth="yes"/>
			<point x="181" y="719" type="line" smooth="yes"/>
			<point x="187" y="729"/>
			<point x="187" y="735"/>
			<point x="187" y="741" type="curve" smooth="yes"/>
			<point x="187" y="757"/>
			<point x="174" y="768"/>
			<point x="154" y="768" type="curve" smooth="yes"/>
			<point x="141" y="768"/>
			<point x="131" y="763"/>
		</contour>
	</outline>
</glyph>
<glyph name="horncomb" format="2">
	<advance width="0"/>
	<unicode hex="031B"/>
	<anchor x="-244" y="515" name="_top"/>
	<anchor x="-27" y="648" name="topright"/>
	<outline>
		<contour>
			<point x="150" y="618" type="curve" smooth="yes"/>
			<point x="150" y="577"/>
			<point x="122" y="525"/>
			<point x="40" y="525" type="curve"/>
			<point x="40" y="467" type="line"/>
			<point x="174" y="467"/>
			<point x="222" y="560"/>
			<point x="222" y="613" type="curve" smooth="yes"/>
			<point x="222" y="640"/>
			<point x="208" y="656"/>
			<point x="185" y="656" type="curve" smooth="yes"/>
			<point x="164" y="656"/>
			<point x="150" y="642"/>
		</contour>
	</outline>
</glyph>
<glyph name="commaaccentcomb" format="2">
	<advance width="0"/>
	<unicode hex="0326"/>
	<anchor x="114" y="0" name="_bottom"/>
	<anchor x="114" y="-230" name="bottom"/>
	<outline>
		<contour>
			<point x="106" y="-212" type="curve" smooth="yes"/>
			<point x="178" y="-118" type="line" smooth="yes"/>
			<point x="184" y="-110"/>
			<point x="187" y="-100"/>
			<point x="187" y="-91" type="curve" smooth="yes"/>
			<point x="187" y="-66"/>
			<point x="172" y="-50"/>
			<point x="144" y="-50" type="curve" smooth="yes"/>
			<point x="127" y="-50"/>
			<point x="114" y="-60"/>
			<point x="106" y="-74" type="curve" smooth="yes"/>
			<point x="46" y="-181" type="line" smooth="yes"/>
			<point x="40" y="-191"/>
			<point x="40" y="-197"/>
			<point x="40" y="-203" type="curve" smooth="yes"/>
			<point x="40" y="-219"/>
			<point x="53" y="-230"/>
			<point x="73" y="-230" type="curve" smooth="yes"/>
			<point x="86" y="-230"/>
			<point x="96" y="-225"/>
		</contour>
	</outline>
</glyph>
<glyph name="cedillacomb" format="2">
	<advance width="0"/>
	<unicode hex="0327"/>
	<anchor x="156" y="0" name="_bottom"/>
	<anchor x="156" y="-200" name="bottom"/>
	<outline>
		<contour>
			<point x="144" y="-8" type="curve" smooth="yes"/>
			<point x="163" y="-14"/>
			<point x="185" y="-41"/>
			<point x="185" y="-75" type="curve" smooth="yes"/>
			<point x="185" y="-97"/>
			<point x="175" y="-112"/>
			<point x="144" y="-111" type="curve" smooth="yes"/>
			<point x="132" y="-110"/>
			<point x="122" y="-107"/>
			<point x="108" y="-95" type="curve" smooth="yes"/>
			<point x="99" y="-88"/>
			<point x="91" y="-82"/>
			<point x="78" y="-82" type="curve" smooth="yes"/>
			<point x="59" y="-82"/>
			<point x="45" y="-96"/>
			<point x="45" y="-118" type="curve" smooth="yes"/>
			<point x="45" y="-162"/>
			<point x="115" y="-186"/>
			<point x="158" y="-186" type="curve" smooth="yes"/>
			<point x="223" y="-186"/>
			<point x="258" y="-133"/>
			<point x="258" y="-80" type="curve" smooth="yes"/>
			<point x="258" y="-4"/>
			<point x="199" y="36"/>
			<point x="166" y="44" type="curve" smooth="yes"/>
			<point x="162" y="45"/>
			<point x="158" y="46"/>
			<point x="154" y="46" type="curve" smooth="yes"/>
			<point x="133" y="46"/>
			<point x="116" y="51"/>
			<point x="116" y="30" type="curve" smooth="yes"/>
			<point x="116" y="13"/>
			<point x="129" y="-3"/>
		</contour>
	</outline>
</glyph>
<glyph name="Delta" format="2">
	<advance width="615"/>
	<unicode hex="0394"/>
	<outline>
		<contour>
			<point x="254" y="677" type="curve" smooth="yes"/>
			<point x="25" y="79" type="line"/>
			<point x="9" y="37"/>
			<point x="35" y="0"/>
			<point x="78" y="0" type="curve" smooth="yes"/>
			<point x="537" y="0" type="line" smooth="yes"/>
			<point x="580" y="0"/>
			<point x="606" y="38"/>
			<point x="590" y="79" type="curve" smooth="yes"/>
			<point x="355" y="678" type="line" smooth="yes"/>
			<point x="335" y="729"/>
			<point x="274" y="727"/>
		</contour>
		<contour>
			<point x="99" y="49" type="line"/>
			<point x="330" y="649" type="line"/>
			<point x="281" y="648" type="line"/>
			<point x="516" y="49" type="line"/>
			<point x="537" y="80" type="line"/>
			<point x="78" y="80" type="line"/>
		</contour>
	</outline>
</glyph>
<glyph name="pi" format="2">
	<advance width="661"/>
	<unicode hex="03C0"/>
	<anchor x="181" y="0" name="bottom"/>
	<outline>
		<contour>
			<point x="70" y="475" type="move"/>
			<point x="579" y="475" type="line"/>
		</contour>
		<contour>
			<point x="221" y="30" type="curve" smooth="yes"/>
			<point x="221" y="476" type="line"/>
			<point x="141" y="476" type="line"/>
			<point x="141" y="30" type="line" smooth="yes"/>
			<point x="141" y="8"/>
			<point x="158" y="-10"/>
			<point x="181" y="-10" type="curve" smooth="yes"/>
			<point x="203" y="-10"/>
			<point x="221" y="8"/>
		</contour>
		<contour>
			<point x="503" y="111" type="curve" smooth="yes"/>
			<point x="503" y="476" type="line"/>
			<point x="423" y="476" type="line"/>
			<point x="423" y="111" type="line" smooth="yes"/>
			<point x="423" y="24"/>
			<point x="470" y="-15"/>
			<point x="532" y="-15" type="curve" smooth="yes"/>
			<point x="558" y="-15"/>
			<point x="589" y="-6"/>
			<point x="608" y="15" type="curve" smooth="yes"/>
			<point x="617" y="25"/>
			<point x="621" y="34"/>
			<point x="621" y="48" type="curve" smooth="yes"/>
			<point x="621" y="67"/>
			<point x="605" y="85"/>
			<point x="583" y="85" type="curve" smooth="yes"/>
			<point x="571" y="85"/>
			<point x="561" y="80"/>
			<point x="555" y="75" type="curve" smooth="yes"/>
			<point x="545" y="66"/>
			<point x="536" y="65"/>
			<point x="529" y="65" type="curve" smooth="yes"/>
			<point x="506" y="65"/>
			<point x="503" y="82"/>
		</contour>
	</outline>
</glyph>
<glyph name="Ohornacute" format="2">
	<advance width="600"/>
	<unicode hex="1EDA"/>
	<outline>
		<component base="Ohorn"/>
		<component base="acutecomb" xOffset="251" yOffset="170"/>
		<contour>
			<point x="344" y="-14" type="curve" smooth="yes" name="💚"/>
			<point x="168" y="-14"/>
			<point x="60" y="130"/>
			<point x="60" y="350" type="curve" smooth="yes"/>
			<point x="60" y="571"/>
			<point x="178" y="715"/>
			<point x="344" y="715" type="curve" smooth="yes"/>
			<point x="510" y="715"/>
			<point x="628" y="571"/>
			<point x="628" y="350" type="curve" smooth="yes"/>
			<point x="628" y="130"/>
			<point x="520" y="-14"/>
		</contour>
		<contour>
			<point x="344" y="640" type="curve" smooth="yes"/>
			<point x="218" y="640"/>
			<point x="142" y="521"/>
			<point x="142" y="350" type="curve" smooth="yes"/>
			<point x="142" y="179"/>
			<point x="218" y="61"/>
			<point x="344" y="61" type="curve" smooth="yes"/>
			<point x="470" y="61"/>
			<point x="546" y="179"/>
			<point x="546" y="350" type="curve" smooth="yes"/>
			<point x="546" y="521"/>
			<point x="470" y="640"/>
		</contour>
	</outline>
</glyph>
<glyph name="ohorntilde" format="2">
	<advance width="546"/>
	<unicode hex="1EE1"/>
	<anchor x="275" y="0" name="bottom"/>
	<anchor x="275" y="515" name="top"/>
	<outline>
		<contour>
			<point x="426" y="259" type="curve" smooth="yes" name="💚"/>
			<point x="426" y="136"/>
			<point x="373" y="62"/>
			<point x="273" y="62" type="curve" smooth="yes"/>
			<point x="173" y="62"/>
			<point x="120" y="136"/>
			<point x="120" y="259" type="curve" smooth="yes"/>
			<point x="120" y="378"/>
			<point x="173" y="453"/>
			<point x="273" y="453" type="curve" smooth="yes"/>
			<point x="373" y="453"/>
			<point x="426" y="378"/>
		</contour>
		<contour>
			<point x="506" y="259" type="curve" smooth="yes"/>
			<point x="506" y="413"/>
			<point x="416" y="530"/>
			<point x="273" y="530" type="curve" smooth="yes"/>
			<point x="130" y="530"/>
			<point x="40" y="413"/>
			<point x="40" y="259" type="curve" smooth="yes"/>
			<point x="40" y="101"/>
			<point x="130" y="-15"/>
			<point x="273" y="-15" type="curve" smooth="yes"/>
			<point x="416" y="-15"/>
			<point x="506" y="101"/>
		</contour>
		<contour>
			<point x="463" y="618" type="curve" smooth="yes"/>
			<point x="463" y="577"/>
			<point x="455" y="528"/>
			<point x="300" y="528" type="curve"/>
			<point x="323" y="464" type="line"/>
			<point x="507" y="464"/>
			<point x="535" y="560"/>
			<point x="535" y="613" type="curve" smooth="yes"/>
			<point x="535" y="640"/>
			<point x="521" y="656"/>
			<point x="498" y="656" type="curve" smooth="yes"/>
			<point x="477" y="656"/>
			<point x="463" y="642"/>
		</contour>
		<component base="tildecomb.loclVIT" xOffset="64"/>
	</outline>
</glyph>
<glyph name="dagger" format="2">
	<advance width="396"/>
	<unicode hex="2020"/>
	<outline>
		<contour>
			<point x="160" y="695" type="curve" smooth="yes"/>
			<point x="167" y="587" type="line"/>
			<point x="229" y="587" type="line"/>
			<point x="236" y="695" type="line" smooth="yes"/>
			<point x="237" y="717"/>
			<point x="218" y="735"/>
			<point x="198" y="735" type="curve" smooth="yes"/>
			<point x="178" y="735"/>
			<point x="159" y="717"/>
		</contour>
		<contour>
			<point x="236" y="324" type="curve" smooth="yes"/>
			<point x="229" y="587" type="line"/>
			<point x="167" y="587" type="line"/>
			<point x="160" y="324" type="line" smooth="yes"/>
			<point x="159" y="302"/>
			<point x="178" y="284"/>
			<point x="198" y="284" type="curve" smooth="yes"/>
			<point x="218" y="284"/>
			<point x="237" y="302"/>
		</contour>
		<contour>
			<point x="83" y="551" type="curve" smooth="yes"/>
			<point x="167" y="556" type="line"/>
			<point x="167" y="618" type="line"/>
			<point x="83" y="623" type="line" smooth="yes"/>
			<point x="62" y="624"/>
			<point x="45" y="607"/>
			<point x="45" y="587" type="curve" smooth="yes"/>
			<point x="45" y="567"/>
			<point x="62" y="550"/>
		</contour>
		<contour>
			<point x="229" y="556" type="line"/>
			<point x="313" y="551" type="line" smooth="yes"/>
			<point x="334" y="550"/>
			<point x="351" y="567"/>
			<point x="351" y="587" type="curve" smooth="yes"/>
			<point x="351" y="607"/>
			<point x="334" y="624"/>
			<point x="313" y="623" type="curve" smooth="yes"/>
			<point x="229" y="618" type="line"/>
		</contour>
	</outline>
</glyph>
<glyph name="ellipsis" format="2">
	<advance width="660"/>
	<unicode hex="2026"/>
	<outline>
		<contour>
			<point x="110" y="-10" type="curve" smooth="yes"/>
			<point x="77" y="-10"/>
			<point x="55" y="12"/>
			<point x="55" y="53" type="curve" smooth="yes"/>
			<point x="55" y="93"/>
			<point x="77" y="115"/>
			<point x="110" y="115" type="curve" smooth="yes"/>
			<point x="143" y="115"/>
			<point x="165" y="93"/>
			<point x="165" y="53" type="curve" smooth="yes"/>
			<point x="165" y="12"/>
			<point x="143" y="-10"/>
		</contour>
		<contour>
			<point x="320" y="-10" type="curve" smooth="yes"/>
			<point x="287" y="-10"/>
			<point x="265" y="12"/>
			<point x="265" y="53" type="curve" smooth="yes"/>
			<point x="265" y="93"/>
			<point x="287" y="115"/>
			<point x="320" y="115" type="curve" smooth="yes"/>
			<point x="353" y="115"/>
			<point x="375" y="93"/>
			<point x="375" y="53" type="curve" smooth="yes"/>
			<point x="375" y="12"/>
			<point x="353" y="-10"/>
		</contour>
		<contour>
			<point x="530" y="-10" type="curve" smooth="yes"/>
			<point x="497" y="-10"/>
			<point x="475" y="12"/>
			<point x="475" y="53" type="curve" smooth="yes"/>
			<point x="475" y="93"/>
			<point x="497" y="115"/>
			<point x="530" y="115" type="curve" smooth="yes"/>
			<point x="563" y="115"/>
			<point x="585" y="93"/>
			<point x="585" y="53" type="curve" smooth="yes"/>
			<point x="585" y="12"/>
			<point x="563" y="-10"/>
		</contour>
	</outline>
</glyph>
<glyph name="fraction" format="2">
	<advance width="213"/>
	<unicode hex="2044"/>
	<outline>
		<contour>
			<point x="-93" y="0" type="curve" smooth="yes"/>
			<point x="363" y="656" type="line"/>
			<point x="366" y="663"/>
			<point x="369" y="668"/>
			<point x="369" y="676" type="curve" smooth="yes"/>
			<point x="369" y="696"/>
			<point x="354" y="711"/>
			<point x="334" y="711" type="curve" smooth="yes"/>
			<point x="322" y="711"/>
			<point x="311" y="705"/>
			<point x="306" y="697" type="curve" smooth="yes"/>
			<point x="-150" y="41" type="line"/>
			<point x="-153" y="34"/>
			<point x="-156" y="29"/>
			<point x="-156" y="21" type="curve" smooth="yes"/>
			<point x="-156" y="1"/>
			<point x="-141" y="-14"/>
			<point x="-121" y="-14" type="curve" smooth="yes"/>
			<point x="-109" y="-14"/>
			<point x="-98" y="-8"/>
		</contour>
	</outline>
</glyph>
<glyph name="colonsign" format="2">
	<advance width="600"/>
	<unicode hex="20A1"/>
	<outline>
		<component base="C" xOffset="-14"/>
		<contour>
			<point x="287" y="777" type="move"/>
			<point x="141" y="-65" type="line"/>
		</contour>
		<contour>
			<point x="437" y="777" type="move"/>
			<point x="291" y="-65" type="line"/>
		</contour>
	</outline>
</glyph>
<glyph name="naira" format="2">
	<advance width="620"/>
	<unicode hex="20A6"/>
	<outline>
		<contour>
			<point x="141" y="-4" type="curve" smooth="yes"/>
			<point x="164" y="-4"/>
			<point x="182" y="14"/>
			<point x="182" y="37" type="curve" smooth="yes"/>
			<point x="177" y="608" type="line"/>
			<point x="126" y="636" type="line"/>
			<point x="410" y="31" type="line" smooth="yes"/>
			<point x="420" y="10"/>
			<point x="434" y="-5"/>
			<point x="466" y="-5" type="curve" smooth="yes"/>
			<point x="489" y="-5"/>
			<point x="507" y="13"/>
			<point x="507" y="36" type="curve" smooth="yes"/>
			<point x="507" y="664" type="line" smooth="yes"/>
			<point x="507" y="687"/>
			<point x="489" y="705"/>
			<point x="466" y="705" type="curve" smooth="yes"/>
			<point x="443" y="705"/>
			<point x="425" y="687"/>
			<point x="425" y="664" type="curve" smooth="yes"/>
			<point x="434" y="69" type="line"/>
			<point x="451" y="120" type="line"/>
			<point x="197" y="669" type="line" smooth="yes"/>
			<point x="187" y="690"/>
			<point x="173" y="705"/>
			<point x="141" y="705" type="curve" smooth="yes"/>
			<point x="118" y="705"/>
			<point x="100" y="687"/>
			<point x="100" y="664" type="curve" smooth="yes"/>
			<point x="100" y="37" type="line" smooth="yes"/>
			<point x="100" y="14"/>
			<point x="118" y="-4"/>
		</contour>
		<contour>
			<point x="46" y="344" type="move"/>
			<point x="574" y="344" type="line"/>
		</contour>
	</outline>
</glyph>
<glyph name="peseta" format="2">
	<advance width="620"/>
	<unicode hex="20A7"/>
	<outline>
		<contour>
			<point x="145" y="-10" type="curve" smooth="yes"/>
			<point x="168" y="-10"/>
			<point x="186" y="8"/>
			<point x="186" y="31" type="curve" smooth="yes"/>
			<point x="186" y="700" type="line"/>
			<point x="145" y="700" type="line" smooth="yes" name="💚"/>
			<point x="122" y="700"/>
			<point x="104" y="682"/>
			<point x="104" y="659" type="curve" smooth="yes"/>
			<point x="104" y="31" type="line" smooth="yes"/>
			<point x="104" y="8"/>
			<point x="122" y="-10"/>
		</contour>
		<contour>
			<point x="141" y="288" type="line"/>
			<point x="334" y="288" type="line" smooth="yes"/>
			<point x="439" y="288"/>
			<point x="523" y="375"/>
			<point x="523" y="494" type="curve" smooth="yes"/>
			<point x="523" y="613"/>
			<point x="436" y="700"/>
			<point x="317" y="700" type="curve" smooth="yes"/>
			<point x="141" y="700" type="line"/>
			<point x="141" y="622" type="line"/>
			<point x="317" y="622" type="line" smooth="yes"/>
			<point x="393" y="622"/>
			<point x="442" y="570"/>
			<point x="442" y="494" type="curve" smooth="yes"/>
			<point x="442" y="418"/>
			<point x="393" y="366"/>
			<point x="317" y="366" type="curve" smooth="yes"/>
			<point x="141" y="366" type="line"/>
		</contour>
		<contour>
			<point x="146" y="661" type="move"/>
			<point x="146" y="0" type="line"/>
		</contour>
		<contour>
			<point x="143" y="661" type="move"/>
			<point x="329" y="661" type="line" smooth="yes"/>
			<point x="421" y="661"/>
			<point x="492" y="586"/>
			<point x="492" y="494" type="curve" smooth="yes"/>
			<point x="492" y="402"/>
			<point x="421" y="327"/>
			<point x="329" y="327" type="curve" smooth="yes"/>
			<point x="143" y="327" type="line"/>
		</contour>
		<contour>
			<point x="22" y="494" type="move"/>
			<point x="598" y="494" type="line"/>
		</contour>
	</outline>
</glyph>
<glyph name="won" format="2">
	<advance width="620"/>
	<unicode hex="20A9"/>
	<outline>
		<contour>
			<point x="24" y="310" type="move"/>
			<point x="596" y="310" type="line"/>
		</contour>
		<contour>
			<point x="24" y="477" type="move"/>
			<point x="291" y="477" type="line"/>
		</contour>
		<contour>
			<point x="266" y="410" type="move"/>
		</contour>
		<contour>
			<point x="343" y="477" type="move"/>
			<point x="596" y="477" type="line"/>
		</contour>
		<contour>
			<point x="287" y="574" type="line"/>
			<point x="371" y="46" type="line" smooth="yes"/>
			<point x="375" y="19"/>
			<point x="390" y="0"/>
			<point x="414" y="0" type="curve" smooth="yes"/>
			<point x="441" y="0"/>
			<point x="454" y="19"/>
			<point x="459" y="46" type="curve" smooth="yes"/>
			<point x="565" y="648" type="line" smooth="yes"/>
			<point x="566" y="652"/>
			<point x="567" y="656"/>
			<point x="567" y="661" type="curve" smooth="yes"/>
			<point x="567" y="683"/>
			<point x="548" y="700"/>
			<point x="526" y="700" type="curve" smooth="yes"/>
			<point x="509" y="700"/>
			<point x="491" y="689"/>
			<point x="489" y="674" type="curve" smooth="yes"/>
			<point x="405" y="84" type="line"/>
			<point x="428" y="85" type="line"/>
			<point x="345" y="664" type="line" smooth="yes"/>
			<point x="342" y="685"/>
			<point x="328" y="700"/>
			<point x="309" y="700" type="curve" smooth="yes"/>
			<point x="291" y="700"/>
			<point x="277" y="685"/>
			<point x="274" y="664" type="curve" smooth="yes"/>
			<point x="188" y="85" type="line"/>
			<point x="214" y="84" type="line"/>
			<point x="130" y="674" type="line" smooth="yes"/>
			<point x="128" y="689"/>
			<point x="110" y="700"/>
			<point x="93" y="700" type="curve" smooth="yes"/>
			<point x="71" y="700"/>
			<point x="52" y="683"/>
			<point x="52" y="661" type="curve" smooth="yes"/>
			<point x="52" y="656"/>
			<point x="53" y="652"/>
			<point x="54" y="648" type="curve" smooth="yes"/>
			<point x="160" y="46" type="line" smooth="yes"/>
			<point x="165" y="19"/>
			<point x="178" y="0"/>
			<point x="205" y="0" type="curve" smooth="yes"/>
			<point x="229" y="0"/>
			<point x="244" y="19"/>
			<point x="248" y="46" type="curve" smooth="yes"/>
			<point x="325" y="574" type="line"/>
		</contour>
	</outline>
</glyph>
<glyph name="kip" format="2">
	<advance width="620"/>
	<unicode hex="20AD"/>
	<outline>
		<contour>
			<point x="182" y="694" type="move"/>
			<point x="182" y="-10" type="line"/>
		</contour>
		<contour>
			<point x="56" y="361" type="move"/>
			<point x="546" y="361" type="line"/>
		</contour>
		<contour>
			<point x="531" y="685" type="move"/>
			<point x="270" y="343" type="line"/>
		</contour>
		<contour>
			<point x="270" y="377" type="move"/>
			<point x="550" y="0" type="line"/>
		</contour>
	</outline>
</glyph>
<glyph name="numero" format="2">
	<advance width="1195"/>
	<unicode hex="2116"/>
	<outline>
		<contour>
			<point x="121" y="-4" type="curve" smooth="yes"/>
			<point x="144" y="-4"/>
			<point x="162" y="14"/>
			<point x="162" y="37" type="curve" smooth="yes"/>
			<point x="158" y="608" type="line"/>
			<point x="105" y="636" type="line"/>
			<point x="480" y="31" type="line" smooth="yes"/>
			<point x="493" y="10"/>
			<point x="504" y="-5"/>
			<point x="536" y="-5" type="curve" smooth="yes"/>
			<point x="559" y="-5"/>
			<point x="577" y="13"/>
			<point x="577" y="36" type="curve" smooth="yes"/>
			<point x="577" y="664" type="line" smooth="yes"/>
			<point x="577" y="687"/>
			<point x="559" y="705"/>
			<point x="536" y="705" type="curve" smooth="yes"/>
			<point x="513" y="705"/>
			<point x="495" y="687"/>
			<point x="495" y="664" type="curve" smooth="yes"/>
			<point x="500" y="71" type="line"/>
			<point x="515" y="122" type="line"/>
			<point x="177" y="669" type="line" smooth="yes"/>
			<point x="164" y="690"/>
			<point x="153" y="705"/>
			<point x="121" y="705" type="curve" smooth="yes"/>
			<point x="98" y="705"/>
			<point x="80" y="687"/>
			<point x="80" y="664" type="curve" smooth="yes"/>
			<point x="80" y="37" type="line" smooth="yes"/>
			<point x="80" y="14"/>
			<point x="98" y="-4"/>
		</contour>
		<contour>
			<point x="1035" y="446" type="curve" smooth="yes" name="💚"/>
			<point x="1035" y="338"/>
			<point x="971" y="257"/>
			<point x="882" y="257" type="curve" smooth="yes"/>
			<point x="793" y="257"/>
			<point x="729" y="338"/>
			<point x="729" y="446" type="curve" smooth="yes"/>
			<point x="729" y="553"/>
			<point x="793" y="632"/>
			<point x="882" y="632" type="curve" smooth="yes"/>
			<point x="971" y="632"/>
			<point x="1035" y="553"/>
		</contour>
		<contour>
			<point x="1115" y="446" type="curve" smooth="yes"/>
			<point x="1115" y="597"/>
			<point x="1017" y="707"/>
			<point x="882" y="707" type="curve" smooth="yes"/>
			<point x="747" y="707"/>
			<point x="649" y="597"/>
			<point x="649" y="446" type="curve" smooth="yes"/>
			<point x="649" y="293"/>
			<point x="747" y="182"/>
			<point x="882" y="182" type="curve" smooth="yes"/>
			<point x="1017" y="182"/>
			<point x="1115" y="293"/>
		</contour>
		<contour>
			<point x="674" y="37" type="move"/>
			<point x="1099" y="37" type="line"/>
		</contour>
	</outline>
</glyph>
<glyph name="northEastArrow" format="2">
	<advance width="556"/>
	<unicode hex="2197"/>
	<outline>
		<contour>
			<point x="528" y="237" type="curve" smooth="yes"/>
			<point x="528" y="598" type="line" smooth="yes"/>
			<point x="528" y="629"/>
			<point x="506" y="652"/>
			<point x="474" y="652" type="curve" smooth="yes"/>
			<point x="111" y="653" type="line" smooth="yes"/>
			<point x="101" y="653"/>
			<point x="90" y="649"/>
			<point x="82" y="641" type="curve" smooth="yes"/>
			<point x="66" y="626"/>
			<point x="66" y="600"/>
			<point x="82" y="585" type="curve" smooth="yes"/>
			<point x="90" y="577"/>
			<point x="98" y="573"/>
			<point x="110" y="573" type="curve" smooth="yes"/>
			<point x="431" y="573" type="line"/>
			<point x="420" y="599" type="line"/>
			<point x="-39" y="140" type="line" smooth="yes"/>
			<point x="-54" y="125"/>
			<point x="-54" y="100"/>
			<point x="-39" y="85" type="curve" smooth="yes"/>
			<point x="-23" y="69"/>
			<point x="1" y="70"/>
			<point x="16" y="85" type="curve" smooth="yes"/>
			<point x="475" y="544" type="line"/>
			<point x="449" y="554" type="line"/>
			<point x="447" y="235" type="line" smooth="yes"/>
			<point x="447" y="224"/>
			<point x="451" y="216"/>
			<point x="459" y="208" type="curve" smooth="yes"/>
			<point x="474" y="192"/>
			<point x="500" y="192"/>
			<point x="515" y="208" type="curve" smooth="yes"/>
			<point x="523" y="216"/>
			<point x="527" y="227"/>
		</contour>
	</outline>
</glyph>
<glyph name="notequal" format="2">
	<advance width="559"/>
	<unicode hex="2260"/>
	<outline>
		<contour>
			<point x="476" y="302" type="curve" smooth="yes"/>
			<point x="79" y="302" type="line" smooth="yes"/>
			<point x="58" y="302"/>
			<point x="40" y="285"/>
			<point x="40" y="263" type="curve" smooth="yes"/>
			<point x="40" y="241"/>
			<point x="58" y="224"/>
			<point x="79" y="224" type="curve" smooth="yes"/>
			<point x="476" y="224" type="line" smooth="yes"/>
			<point x="497" y="224"/>
			<point x="515" y="241"/>
			<point x="515" y="263" type="curve" smooth="yes"/>
			<point x="515" y="285"/>
			<point x="497" y="302"/>
		</contour>
		<contour>
			<point x="480" y="492" type="curve" smooth="yes"/>
			<point x="83" y="492" type="line" smooth="yes"/>
			<point x="62" y="492"/>
			<point x="44" y="475"/>
			<point x="44" y="453" type="curve" smooth="yes"/>
			<point x="44" y="431"/>
			<point x="62" y="414"/>
			<point x="83" y="414" type="curve" smooth="yes"/>
			<point x="480" y="414" type="line" smooth="yes"/>
			<point x="501" y="414"/>
			<point x="519" y="431"/>
			<point x="519" y="453" type="curve" smooth="yes"/>
			<point x="519" y="475"/>
			<point x="501" y="492"/>
		</contour>
		<contour>
			<point x="337" y="599" type="curve" smooth="yes"/>
			<point x="141" y="145" type="line" smooth="yes"/>
			<point x="139" y="140"/>
			<point x="138" y="135"/>
			<point x="138" y="129" type="curve" smooth="yes"/>
			<point x="138" y="108"/>
			<point x="155" y="90"/>
			<point x="177" y="90" type="curve" smooth="yes"/>
			<point x="193" y="90"/>
			<point x="207" y="99"/>
			<point x="212" y="113" type="curve" smooth="yes"/>
			<point x="408" y="567" type="line" smooth="yes"/>
			<point x="410" y="572"/>
			<point x="411" y="577"/>
			<point x="411" y="583" type="curve" smooth="yes"/>
			<point x="411" y="604"/>
			<point x="394" y="622"/>
			<point x="372" y="622" type="curve" smooth="yes"/>
			<point x="356" y="622"/>
			<point x="342" y="613"/>
		</contour>
	</outline>
</glyph>
<glyph name="greaterequal" format="2">
	<advance width="535"/>
	<unicode hex="2265"/>
	<outline>
		<contour>
			<point x="456" y="147" type="curve" smooth="yes"/>
			<point x="79" y="147" type="line" smooth="yes"/>
			<point x="58" y="147"/>
			<point x="40" y="130"/>
			<point x="40" y="108" type="curve" smooth="yes"/>
			<point x="40" y="86"/>
			<point x="58" y="69"/>
			<point x="79" y="69" type="curve" smooth="yes"/>
			<point x="456" y="69" type="line" smooth="yes"/>
			<point x="477" y="69"/>
			<point x="495" y="86"/>
			<point x="495" y="108" type="curve" smooth="yes"/>
			<point x="495" y="130"/>
			<point x="477" y="147"/>
		</contour>
		<contour>
			<point x="459" y="467" type="line"/>
			<point x="65" y="282" type="line" smooth="yes"/>
			<point x="52" y="276"/>
			<point x="43" y="263"/>
			<point x="43" y="248" type="curve" smooth="yes"/>
			<point x="43" y="227"/>
			<point x="60" y="208"/>
			<point x="81" y="208" type="curve" smooth="yes"/>
			<point x="87" y="208"/>
			<point x="92" y="210"/>
			<point x="97" y="212" type="curve" smooth="yes"/>
			<point x="455" y="382" type="line" smooth="yes"/>
			<point x="470" y="389"/>
			<point x="493" y="409"/>
			<point x="493" y="430" type="curve" smooth="yes"/>
			<point x="493" y="450"/>
			<point x="474" y="470"/>
			<point x="455" y="479" type="curve" smooth="yes"/>
			<point x="97" y="647" type="line" smooth="yes"/>
			<point x="92" y="649"/>
			<point x="87" y="651"/>
			<point x="81" y="651" type="curve" smooth="yes"/>
			<point x="60" y="651"/>
			<point x="43" y="634"/>
			<point x="43" y="613" type="curve" smooth="yes"/>
			<point x="43" y="596"/>
			<point x="52" y="583"/>
			<point x="65" y="577" type="curve" smooth="yes"/>
			<point x="459" y="391" type="line"/>
		</contour>
	</outline>
</glyph>
<glyph name="dottedCircle" format="2">
	<advance width="989"/>
	<unicode hex="25CC"/>
	<anchor x="0" y="0" name="bottom"/>
	<anchor x="0" y="0" name="top"/>
	<outline>
		<contour>
			<point x="517" y="771" type="curve" smooth="yes"/>
			<point x="517" y="758"/>
			<point x="507" y="748"/>
			<point x="495" y="748" type="curve" smooth="yes"/>
			<point x="482" y="748"/>
			<point x="472" y="758"/>
			<point x="472" y="771" type="curve" smooth="yes"/>
			<point x="472" y="784"/>
			<point x="482" y="794"/>
			<point x="495" y="794" type="curve" smooth="yes"/>
			<point x="507" y="794"/>
			<point x="517" y="784"/>
		</contour>
		<contour>
			<point x="517" y="-52" type="curve" smooth="yes"/>
			<point x="517" y="-65"/>
			<point x="507" y="-75"/>
			<point x="495" y="-75" type="curve" smooth="yes"/>
			<point x="482" y="-75"/>
			<point x="472" y="-65"/>
			<point x="472" y="-52" type="curve" smooth="yes"/>
			<point x="472" y="-39"/>
			<point x="482" y="-29"/>
			<point x="495" y="-29" type="curve" smooth="yes"/>
			<point x="507" y="-29"/>
			<point x="517" y="-39"/>
		</contour>
		<contour>
			<point x="769" y="52" type="curve" smooth="yes"/>
			<point x="760" y="61"/>
			<point x="760" y="76"/>
			<point x="769" y="85" type="curve" smooth="yes"/>
			<point x="778" y="94"/>
			<point x="793" y="94"/>
			<point x="802" y="85" type="curve" smooth="yes"/>
			<point x="811" y="76"/>
			<point x="811" y="61"/>
			<point x="802" y="52" type="curve" smooth="yes"/>
			<point x="793" y="43"/>
			<point x="778" y="43"/>
		</contour>
		<contour>
			<point x="187" y="634" type="curve" smooth="yes"/>
			<point x="178" y="643"/>
			<point x="178" y="658"/>
			<point x="187" y="667" type="curve" smooth="yes"/>
			<point x="196" y="676"/>
			<point x="211" y="676"/>
			<point x="220" y="667" type="curve" smooth="yes"/>
			<point x="229" y="658"/>
			<point x="229" y="643"/>
			<point x="220" y="634" type="curve" smooth="yes"/>
			<point x="211" y="625"/>
			<point x="196" y="625"/>
		</contour>
		<contour>
			<point x="906" y="336" type="curve" smooth="yes"/>
			<point x="893" y="336"/>
			<point x="883" y="347"/>
			<point x="883" y="359" type="curve" smooth="yes"/>
			<point x="883" y="372"/>
			<point x="893" y="382"/>
			<point x="906" y="382" type="curve" smooth="yes"/>
			<point x="919" y="382"/>
			<point x="929" y="372"/>
			<point x="929" y="359" type="curve" smooth="yes"/>
			<point x="929" y="347"/>
			<point x="919" y="336"/>
		</contour>
		<contour>
			<point x="83" y="336" type="curve" smooth="yes"/>
			<point x="70" y="336"/>
			<point x="60" y="347"/>
			<point x="60" y="359" type="curve" smooth="yes"/>
			<point x="60" y="372"/>
			<point x="70" y="382"/>
			<point x="83" y="382" type="curve" smooth="yes"/>
			<point x="96" y="382"/>
			<point x="106" y="372"/>
			<point x="106" y="359" type="curve" smooth="yes"/>
			<point x="106" y="347"/>
			<point x="96" y="336"/>
		</contour>
		<contour>
			<point x="187" y="85" type="curve" smooth="yes"/>
			<point x="196" y="94"/>
			<point x="211" y="94"/>
			<point x="220" y="85" type="curve" smooth="yes"/>
			<point x="229" y="76"/>
			<point x="229" y="61"/>
			<point x="220" y="52" type="curve" smooth="yes"/>
			<point x="211" y="43"/>
			<point x="196" y="43"/>
			<point x="187" y="52" type="curve" smooth="yes"/>
			<point x="178" y="61"/>
			<point x="178" y="76"/>
		</contour>
		<contour>
			<point x="769" y="667" type="curve" smooth="yes"/>
			<point x="778" y="676"/>
			<point x="793" y="676"/>
			<point x="802" y="667" type="curve" smooth="yes"/>
			<point x="811" y="658"/>
			<point x="811" y="643"/>
			<point x="802" y="634" type="curve" smooth="yes"/>
			<point x="793" y="625"/>
			<point x="778" y="625"/>
			<point x="769" y="634" type="curve" smooth="yes"/>
			<point x="760" y="643"/>
			<point x="760" y="658"/>
		</contour>
		<contour>
			<point x="358" y="748" type="curve" smooth="yes"/>
			<point x="363" y="737"/>
			<point x="358" y="723"/>
			<point x="346" y="718" type="curve" smooth="yes"/>
			<point x="334" y="714"/>
			<point x="321" y="719"/>
			<point x="316" y="731" type="curve" smooth="yes"/>
			<point x="311" y="743"/>
			<point x="317" y="756"/>
			<point x="328" y="761" type="curve" smooth="yes"/>
			<point x="340" y="766"/>
			<point x="353" y="760"/>
		</contour>
		<contour>
			<point x="673" y="-12" type="curve" smooth="yes"/>
			<point x="678" y="-24"/>
			<point x="672" y="-37"/>
			<point x="661" y="-42" type="curve" smooth="yes"/>
			<point x="649" y="-47"/>
			<point x="636" y="-41"/>
			<point x="631" y="-30" type="curve" smooth="yes"/>
			<point x="626" y="-18"/>
			<point x="631" y="-4"/>
			<point x="643" y="0" type="curve" smooth="yes"/>
			<point x="655" y="5"/>
			<point x="668" y="0"/>
		</contour>
		<contour>
			<point x="866" y="181" type="curve" smooth="yes"/>
			<point x="854" y="186"/>
			<point x="848" y="199"/>
			<point x="853" y="211" type="curve" smooth="yes"/>
			<point x="857" y="222"/>
			<point x="872" y="228"/>
			<point x="883" y="223" type="curve" smooth="yes"/>
			<point x="895" y="218"/>
			<point x="901" y="205"/>
			<point x="896" y="193" type="curve" smooth="yes"/>
			<point x="891" y="181"/>
			<point x="878" y="176"/>
		</contour>
		<contour>
			<point x="106" y="496" type="curve" smooth="yes"/>
			<point x="94" y="501"/>
			<point x="88" y="514"/>
			<point x="93" y="526" type="curve" smooth="yes"/>
			<point x="98" y="537"/>
			<point x="111" y="543"/>
			<point x="123" y="538" type="curve" smooth="yes"/>
			<point x="135" y="533"/>
			<point x="140" y="520"/>
			<point x="136" y="508" type="curve" smooth="yes"/>
			<point x="131" y="496"/>
			<point x="117" y="491"/>
		</contour>
		<contour>
			<point x="883" y="496" type="curve" smooth="yes"/>
			<point x="872" y="491"/>
			<point x="858" y="496"/>
			<point x="853" y="508" type="curve" smooth="yes"/>
			<point x="849" y="520"/>
			<point x="854" y="533"/>
			<point x="866" y="538" type="curve" smooth="yes"/>
			<point x="878" y="543"/>
			<point x="891" y="537"/>
			<point x="896" y="526" type="curve" smooth="yes"/>
			<point x="901" y="514"/>
			<point x="895" y="501"/>
		</contour>
		<contour>
			<point x="123" y="181" type="curve" smooth="yes"/>
			<point x="111" y="176"/>
			<point x="98" y="181"/>
			<point x="93" y="193" type="curve" smooth="yes"/>
			<point x="88" y="205"/>
			<point x="94" y="218"/>
			<point x="106" y="223" type="curve" smooth="yes"/>
			<point x="117" y="228"/>
			<point x="132" y="222"/>
			<point x="136" y="211" type="curve" smooth="yes"/>
			<point x="141" y="199"/>
			<point x="135" y="186"/>
		</contour>
		<contour>
			<point x="316" y="-12" type="curve" smooth="yes"/>
			<point x="321" y="0"/>
			<point x="334" y="5"/>
			<point x="346" y="0" type="curve" smooth="yes"/>
			<point x="358" y="-4"/>
			<point x="363" y="-18"/>
			<point x="358" y="-30" type="curve" smooth="yes"/>
			<point x="353" y="-41"/>
			<point x="340" y="-47"/>
			<point x="328" y="-42" type="curve" smooth="yes"/>
			<point x="317" y="-37"/>
			<point x="311" y="-24"/>
		</contour>
		<contour>
			<point x="631" y="748" type="curve" smooth="yes"/>
			<point x="636" y="760"/>
			<point x="649" y="766"/>
			<point x="661" y="761" type="curve" smooth="yes"/>
			<point x="672" y="756"/>
			<point x="678" y="743"/>
			<point x="673" y="731" type="curve" smooth="yes"/>
			<point x="668" y="719"/>
			<point x="655" y="714"/>
			<point x="643" y="718" type="curve" smooth="yes"/>
			<point x="631" y="723"/>
			<point x="626" y="737"/>
		</contour>
	</outline>
</glyph>
<glyph name="fl" format="2">
	<advance width="535"/>
	<unicode hex="FB02"/>
	<outline>
		<contour>
			<point x="137" y="-10" type="curve" smooth="yes"/>
			<point x="159" y="-10"/>
			<point x="177" y="8"/>
			<point x="177" y="30" type="curve" smooth="yes"/>
			<point x="177" y="579" type="line" smooth="yes"/>
			<point x="177" y="635"/>
			<point x="192" y="655"/>
			<point x="213" y="655" type="curve" smooth="yes"/>
			<point x="220" y="655"/>
			<point x="229" y="654"/>
			<point x="239" y="645" type="curve" smooth="yes"/>
			<point x="245" y="640"/>
			<point x="255" y="635"/>
			<point x="267" y="635" type="curve" smooth="yes"/>
			<point x="289" y="635"/>
			<point x="305" y="653"/>
			<point x="305" y="674" type="curve" smooth="yes"/>
			<point x="305" y="709"/>
			<point x="258" y="735"/>
			<point x="214" y="735" type="curve" smooth="yes"/>
			<point x="158" y="735"/>
			<point x="97" y="694"/>
			<point x="97" y="579" type="curve" smooth="yes"/>
			<point x="97" y="30" type="line" smooth="yes"/>
			<point x="97" y="8"/>
			<point x="115" y="-10"/>
		</contour>
		<contour>
			<point x="70" y="442" type="curve" smooth="yes"/>
			<point x="261" y="442" type="line" smooth="yes"/>
			<point x="283" y="442"/>
			<point x="301" y="458"/>
			<point x="301" y="478" type="curve" smooth="yes"/>
			<point x="301" y="498"/>
			<point x="283" y="515"/>
			<point x="261" y="515" type="curve" smooth="yes"/>
			<point x="70" y="515" type="line" smooth="yes"/>
			<point x="48" y="515"/>
			<point x="30" y="499"/>
			<point x="30" y="478" type="curve" smooth="yes"/>
			<point x="30" y="458"/>
			<point x="48" y="442"/>
		</contour>
		<contour>
			<point x="425" y="-10" type="curve" smooth="yes"/>
			<point x="447" y="-10"/>
			<point x="465" y="8"/>
			<point x="465" y="30" type="curve" smooth="yes"/>
			<point x="465" y="690" type="line" smooth="yes"/>
			<point x="465" y="712"/>
			<point x="447" y="730"/>
			<point x="425" y="730" type="curve" smooth="yes"/>
			<point x="402" y="730"/>
			<point x="385" y="712"/>
			<point x="385" y="690" type="curve" smooth="yes"/>
			<point x="385" y="30" type="line" smooth="yes"/>
			<point x="385" y="8"/>
			<point x="402" y="-10"/>
		</contour>
	</outline>
</glyph>
<glyph name="A.ss02" format="2">
	<advance width="648"/>
	<anchor x="324" y="0" name="bottom"/>
	<anchor x="583" y="10" name="ogonek"/>
	<anchor x="324" y="700" name="top"/>
	<outline>
		<contour>
			<point x="144" y="193" type="line"/>
			<point x="498" y="193" type="line"/>
			<point x="498" y="267" type="line"/>
			<point x="144" y="267" type="line"/>
		</contour>
		<contour>
			<point x="71" y="-15" type="curve" smooth="yes"/>
			<point x="88" y="-15"/>
			<point x="103" y="-4"/>
			<point x="109" y="11" type="curve" smooth="yes"/>
			<point x="335" y="620" type="line"/>
			<point x="314" y="620" type="line"/>
			<point x="539" y="11" type="line" smooth="yes"/>
			<point x="544" y="-4"/>
			<point x="560" y="-15"/>
			<point x="577" y="-15" type="curve" smooth="yes"/>
			<point x="610" y="-15"/>
			<point x="624" y="19"/>
			<point x="615" y="42" type="curve" smooth="yes"/>
			<point x="373" y="664" type="line" smooth="yes"/>
			<point x="361" y="695"/>
			<point x="343" y="710"/>
			<point x="324" y="710" type="curve" smooth="yes"/>
			<point x="305" y="710"/>
			<point x="287" y="695"/>
			<point x="275" y="664" type="curve" smooth="yes"/>
			<point x="33" y="42" type="line" smooth="yes"/>
			<point x="24" y="19"/>
			<point x="38" y="-15"/>
		</contour>
	</outline>
</glyph>
<glyph name="C.ss02" format="2">
	<advance width="654"/>
	<outline>
		<contour>
			<point x="348" y="-15" type="curve" smooth="yes"/>
			<point x="467" y="-15"/>
			<point x="548" y="61"/>
			<point x="576" y="183" type="curve" smooth="yes"/>
			<point x="583" y="213"/>
			<point x="567" y="238"/>
			<point x="539" y="238" type="curve" smooth="yes"/>
			<point x="522" y="238"/>
			<point x="506" y="229"/>
			<point x="501" y="201" type="curve" smooth="yes"/>
			<point x="486" y="114"/>
			<point x="431" y="60"/>
			<point x="349" y="60" type="curve" smooth="yes"/>
			<point x="233" y="60"/>
			<point x="143" y="170"/>
			<point x="143" y="350" type="curve" smooth="yes"/>
			<point x="143" y="518"/>
			<point x="228" y="640"/>
			<point x="346" y="640" type="curve" smooth="yes"/>
			<point x="432" y="640"/>
			<point x="491" y="584"/>
			<point x="507" y="512" type="curve" smooth="yes"/>
			<point x="512" y="490"/>
			<point x="526" y="472"/>
			<point x="548" y="472" type="curve" smooth="yes"/>
			<point x="570" y="472"/>
			<point x="591" y="490"/>
			<point x="587" y="519" type="curve" smooth="yes"/>
			<point x="573" y="622"/>
			<point x="487" y="716"/>
			<point x="346" y="716" type="curve" smooth="yes"/>
			<point x="173" y="716"/>
			<point x="60" y="557"/>
			<point x="60" y="350" type="curve" smooth="yes"/>
			<point x="60" y="138"/>
			<point x="178" y="-15"/>
		</contour>
	</outline>
</glyph>
<glyph name="IJ.001" format="2">
	<advance width="498"/>
	<outline>
		<contour>
			<point x="153" y="272" type="curve" smooth="yes"/>
			<point x="153" y="664" type="line" smooth="yes"/>
			<point x="153" y="687"/>
			<point x="135" y="705"/>
			<point x="112" y="705" type="curve" smooth="yes"/>
			<point x="89" y="705"/>
			<point x="71" y="687"/>
			<point x="71" y="664" type="curve" smooth="yes"/>
			<point x="71" y="272" type="line" smooth="yes"/>
			<point x="71" y="249"/>
			<point x="89" y="231"/>
			<point x="112" y="231" type="curve" smooth="yes"/>
			<point x="135" y="231"/>
			<point x="153" y="249"/>
		</contour>
		<contour>
			<point x="240" y="49" type="curve" smooth="yes"/>
			<point x="186" y="49"/>
			<point x="156" y="72"/>
			<point x="156" y="107" type="curve" smooth="yes"/>
			<point x="156" y="129"/>
			<point x="138" y="140"/>
			<point x="115" y="140" type="curve" smooth="yes"/>
			<point x="88" y="140"/>
			<point x="70" y="122"/>
			<point x="70" y="102" type="curve" smooth="yes"/>
			<point x="70" y="21"/>
			<point x="156" y="-30"/>
			<point x="240" y="-30" type="curve" smooth="yes"/>
			<point x="359" y="-30"/>
			<point x="428" y="46"/>
			<point x="428" y="176" type="curve" smooth="yes"/>
			<point x="428" y="664" type="line" smooth="yes"/>
			<point x="428" y="687"/>
			<point x="410" y="705"/>
			<point x="387" y="705" type="curve" smooth="yes"/>
			<point x="364" y="705"/>
			<point x="346" y="687"/>
			<point x="346" y="664" type="curve" smooth="yes"/>
			<point x="346" y="176" type="line" smooth="yes"/>
			<point x="346" y="96"/>
			<point x="307" y="49"/>
		</contour>
	</outline>
</glyph>
<glyph name="L.ss02" format="2">
	<advance width="534"/>
	<anchor x="277" y="0" name="bottom"/>
	<anchor x="267" y="350" name="center"/>
	<anchor x="124" y="700" name="top"/>
	<anchor x="514" y="700" name="topright"/>
	<outline>
		<contour>
			<point x="121" y="0" type="curve" smooth="yes"/>
			<point x="162" y="0" type="line"/>
			<point x="162" y="664" type="line" smooth="yes"/>
			<point x="162" y="687"/>
			<point x="144" y="705"/>
			<point x="121" y="705" type="curve" smooth="yes"/>
			<point x="98" y="705"/>
			<point x="80" y="687"/>
			<point x="80" y="664" type="curve" smooth="yes"/>
			<point x="80" y="41" type="line" smooth="yes"/>
			<point x="80" y="18"/>
			<point x="98" y="0"/>
		</contour>
		<contour>
			<point x="146" y="0" type="line"/>
			<point x="466" y="0" type="line" smooth="yes"/>
			<point x="487" y="0"/>
			<point x="504" y="17"/>
			<point x="504" y="38" type="curve" smooth="yes"/>
			<point x="504" y="59"/>
			<point x="487" y="76"/>
			<point x="466" y="76" type="curve" smooth="yes"/>
			<point x="146" y="76" type="line"/>
		</contour>
	</outline>
</glyph>
<glyph name="N.ss02" format="2">
	<advance width="704"/>
	<outline>
		<contour>
			<point x="121" y="-5" type="curve" smooth="yes"/>
			<point x="144" y="-5"/>
			<point x="162" y="13"/>
			<point x="162" y="36" type="curve" smooth="yes"/>
			<point x="158" y="608" type="line"/>
			<point x="111" y="636" type="line"/>
			<point x="507" y="40" type="line" smooth="yes"/>
			<point x="520" y="20"/>
			<point x="543" y="-6"/>
			<point x="578" y="-5" type="curve" smooth="yes"/>
			<point x="606" y="-4"/>
			<point x="624" y="13"/>
			<point x="624" y="36" type="curve" smooth="yes"/>
			<point x="624" y="664" type="line" smooth="yes"/>
			<point x="624" y="687"/>
			<point x="606" y="705"/>
			<point x="583" y="705" type="curve" smooth="yes"/>
			<point x="560" y="705"/>
			<point x="542" y="687"/>
			<point x="542" y="664" type="curve" smooth="yes"/>
			<point x="542" y="71" type="line"/>
			<point x="556" y="113" type="line"/>
			<point x="183" y="669" type="line" smooth="yes"/>
			<point x="169" y="690"/>
			<point x="149" y="705"/>
			<point x="125" y="705" type="curve" smooth="yes"/>
			<point x="98" y="705"/>
			<point x="80" y="687"/>
			<point x="80" y="664" type="curve" smooth="yes"/>
			<point x="80" y="36" type="line" smooth="yes"/>
			<point x="80" y="13"/>
			<point x="98" y="-5"/>
		</contour>
	</outline>
</glyph>
<glyph name="brevecomb.loclVIT" format="2">
	<advance width="0"/>
	<anchor x="207" y="515" name="_top"/>
	<anchor x="1078" y="768" name="top"/>
	<outline>
		<contour>
			<point x="87" y="710" type="move"/>
			<point x="108" y="659"/>
			<point x="146" y="624"/>
			<point x="207" y="624" type="curve" smooth="yes"/>
			<point x="268" y="624"/>
			<point x="306" y="659"/>
			<point x="327" y="709" type="curve"/>
		</contour>
	</outline>
</glyph>
<glyph name="brevecomb.narrow" format="2">
	<advance width="0"/>
	<anchor x="171" y="515" name="_top"/>
	<anchor x="1042" y="768" name="top"/>
	<outline>
		<contour>
			<point x="76" y="746" type="move"/>
			<point x="83" y="683"/>
			<point x="114" y="627"/>
			<point x="171" y="627" type="curve" smooth="yes"/>
			<point x="228" y="627"/>
			<point x="259" y="683"/>
			<point x="266" y="745" type="curve"/>
		</contour>
	</outline>
</glyph>
<glyph name="circumflexcomb.loclVIT" format="2">
	<advance width="0"/>
	<anchor x="193" y="515" name="_top"/>
	<anchor x="193" y="768" name="top"/>
	<outline>
		<contour>
			<point x="331" y="649" type="curve" smooth="yes"/>
			<point x="235" y="747" type="line" smooth="yes"/>
			<point x="209" y="774"/>
			<point x="177" y="775"/>
			<point x="151" y="747" type="curve" smooth="yes"/>
			<point x="60" y="650" type="line" smooth="yes"/>
			<point x="52" y="642"/>
			<point x="50" y="634"/>
			<point x="50" y="625" type="curve" smooth="yes"/>
			<point x="50" y="605"/>
			<point x="65" y="588"/>
			<point x="85" y="588" type="curve" smooth="yes"/>
			<point x="96" y="588"/>
			<point x="106" y="595"/>
			<point x="113" y="601" type="curve" smooth="yes"/>
			<point x="209" y="691" type="line"/>
			<point x="179" y="691" type="line"/>
			<point x="275" y="601" type="line" smooth="yes"/>
			<point x="282" y="595"/>
			<point x="292" y="588"/>
			<point x="303" y="588" type="curve" smooth="yes"/>
			<point x="323" y="588"/>
			<point x="340" y="605"/>
			<point x="340" y="625" type="curve" smooth="yes"/>
			<point x="340" y="634"/>
			<point x="337" y="642"/>
		</contour>
	</outline>
</glyph>
<glyph name="comma.ss05" format="2">
	<advance width="193"/>
	<outline>
		<contour>
			<point x="97" y="113" type="curve" smooth="yes"/>
			<point x="141" y="113"/>
			<point x="158" y="75"/>
			<point x="158" y="32" type="curve" smooth="yes"/>
			<point x="158" y="-32"/>
			<point x="124" y="-85"/>
			<point x="98" y="-115" type="curve" smooth="yes"/>
			<point x="82" y="-133"/>
			<point x="62" y="-148"/>
			<point x="40" y="-148" type="curve" smooth="yes"/>
			<point x="20" y="-148"/>
			<point x="6" y="-135"/>
			<point x="6" y="-118" type="curve" smooth="yes"/>
			<point x="6" y="-106"/>
			<point x="13" y="-93"/>
			<point x="30" y="-82" type="curve" smooth="yes"/>
			<point x="56" y="-65"/>
			<point x="76" y="-29"/>
			<point x="76" y="-13" type="curve" smooth="yes"/>
			<point x="76" y="-7"/>
			<point x="72" y="-4"/>
			<point x="67" y="-2" type="curve" smooth="yes"/>
			<point x="50" y="5"/>
			<point x="35" y="23"/>
			<point x="35" y="51" type="curve" smooth="yes"/>
			<point x="35" y="87"/>
			<point x="61" y="113"/>
		</contour>
	</outline>
</glyph>
<glyph name="d.ss03" format="2">
	<advance width="570"/>
	<anchor x="285" y="0" name="bottom"/>
	<anchor x="285" y="258" name="center"/>
	<anchor x="515" y="720" name="top"/>
	<outline>
		<contour>
			<point x="257" y="-15" type="curve" smooth="yes"/>
			<point x="329" y="-15"/>
			<point x="396" y="20"/>
			<point x="418" y="72" type="curve"/>
			<point x="420" y="72" type="line"/>
			<point x="420" y="31" type="line" smooth="yes"/>
			<point x="420" y="8"/>
			<point x="438" y="-10"/>
			<point x="460" y="-10" type="curve" smooth="yes"/>
			<point x="482" y="-10"/>
			<point x="500" y="8"/>
			<point x="500" y="31" type="curve" smooth="yes"/>
			<point x="500" y="690" type="line" smooth="yes"/>
			<point x="500" y="712"/>
			<point x="482" y="730"/>
			<point x="460" y="730" type="curve" smooth="yes"/>
			<point x="438" y="730"/>
			<point x="420" y="712"/>
			<point x="420" y="690" type="curve" smooth="yes"/>
			<point x="420" y="447" type="line"/>
			<point x="418" y="447" type="line"/>
			<point x="393" y="489"/>
			<point x="346" y="530"/>
			<point x="268" y="530" type="curve" smooth="yes"/>
			<point x="133" y="530"/>
			<point x="40" y="406"/>
			<point x="40" y="258" type="curve" smooth="yes"/>
			<point x="40" y="114"/>
			<point x="119" y="-15"/>
		</contour>
		<contour>
			<point x="276" y="62" type="curve" smooth="yes"/>
			<point x="178" y="61"/>
			<point x="120" y="133"/>
			<point x="120" y="258" type="curve" smooth="yes"/>
			<point x="120" y="378"/>
			<point x="177" y="453"/>
			<point x="273" y="453" type="curve" smooth="yes"/>
			<point x="365" y="453"/>
			<point x="420" y="373"/>
			<point x="420" y="258" type="curve" smooth="yes"/>
			<point x="420" y="138"/>
			<point x="368" y="63"/>
		</contour>
	</outline>
</glyph>
<glyph name="daggerdbl.ss06" format="2">
	<advance width="396"/>
	<outline>
		<contour>
			<point x="83" y="551" type="curve" smooth="yes"/>
			<point x="167" y="556" type="line"/>
			<point x="229" y="556" type="line"/>
			<point x="313" y="551" type="line" smooth="yes"/>
			<point x="334" y="550"/>
			<point x="351" y="567"/>
			<point x="351" y="587" type="curve" smooth="yes"/>
			<point x="351" y="607"/>
			<point x="334" y="624"/>
			<point x="313" y="623" type="curve" smooth="yes"/>
			<point x="231" y="618" type="line"/>
			<point x="236" y="695" type="line" smooth="yes"/>
			<point x="237" y="717"/>
			<point x="218" y="735"/>
			<point x="198" y="735" type="curve" smooth="yes"/>
			<point x="178" y="735"/>
			<point x="159" y="717"/>
			<point x="160" y="695" type="curve" smooth="yes"/>
			<point x="165" y="618" type="line"/>
			<point x="83" y="623" type="line" smooth="yes"/>
			<point x="62" y="624"/>
			<point x="45" y="607"/>
			<point x="45" y="587" type="curve" smooth="yes"/>
			<point x="45" y="567"/>
			<point x="62" y="550"/>
		</contour>
		<contour>
			<point x="313" y="468" type="curve" smooth="yes"/>
			<point x="229" y="463" type="line"/>
			<point x="167" y="463" type="line"/>
			<point x="83" y="468" type="line" smooth="yes"/>
			<point x="62" y="469"/>
			<point x="45" y="452"/>
			<point x="45" y="432" type="curve" smooth="yes"/>
			<point x="45" y="412"/>
			<point x="62" y="395"/>
			<point x="83" y="396" type="curve" smooth="yes"/>
			<point x="165" y="401" type="line"/>
			<point x="160" y="324" type="line" smooth="yes"/>
			<point x="159" y="302"/>
			<point x="178" y="284"/>
			<point x="198" y="284" type="curve" smooth="yes"/>
			<point x="218" y="284"/>
			<point x="237" y="302"/>
			<point x="236" y="324" type="curve" smooth="yes"/>
			<point x="231" y="401" type="line"/>
			<point x="313" y="396" type="line" smooth="yes"/>
			<point x="334" y="395"/>
			<point x="351" y="412"/>
			<point x="351" y="432" type="curve" smooth="yes"/>
			<point x="351" y="452"/>
			<point x="334" y="469"/>
		</contour>
		<contour>
			<point x="243" y="500" type="curve" smooth="yes"/>
			<point x="243" y="519" type="line" smooth="yes"/>
			<point x="243" y="541"/>
			<point x="225" y="559"/>
			<point x="198" y="559" type="curve" smooth="yes"/>
			<point x="171" y="559"/>
			<point x="153" y="541"/>
			<point x="153" y="519" type="curve" smooth="yes"/>
			<point x="153" y="500" type="line" smooth="yes"/>
			<point x="153" y="478"/>
			<point x="171" y="460"/>
			<point x="198" y="460" type="curve" smooth="yes"/>
			<point x="225" y="460"/>
			<point x="243" y="478"/>
		</contour>
	</outline>
</glyph>
<glyph name="eight.dnom" format="2">
	<advance width="354"/>
	<outline>
		<contour>
			<point x="154" y="181" type="curve"/>
			<point x="136" y="242" type="line"/>
			<point x="102" y="228"/>
			<point x="40" y="189"/>
			<point x="40" y="123" type="curve" smooth="yes"/>
			<point x="40" y="39"/>
			<point x="106" y="-5"/>
			<point x="183" y="-5" type="curve" smooth="yes"/>
			<point x="246" y="-5"/>
			<point x="314" y="40"/>
			<point x="314" y="114" type="curve" smooth="yes"/>
			<point x="314" y="201"/>
			<point x="234" y="226"/>
			<point x="182" y="233" type="curve" smooth="yes"/>
			<point x="137" y="239"/>
			<point x="117" y="242"/>
			<point x="117" y="277" type="curve" smooth="yes"/>
			<point x="117" y="307"/>
			<point x="140" y="320"/>
			<point x="177" y="320" type="curve" smooth="yes"/>
			<point x="212" y="320"/>
			<point x="241" y="308"/>
			<point x="241" y="280" type="curve" smooth="yes"/>
			<point x="241" y="252"/>
			<point x="222" y="233"/>
			<point x="193" y="217" type="curve"/>
			<point x="220" y="162" type="line"/>
			<point x="256" y="180"/>
			<point x="307" y="220"/>
			<point x="307" y="280" type="curve" smooth="yes"/>
			<point x="307" y="359"/>
			<point x="233" y="386"/>
			<point x="177" y="386" type="curve" smooth="yes"/>
			<point x="120" y="386"/>
			<point x="51" y="350"/>
			<point x="51" y="277" type="curve" smooth="yes"/>
			<point x="51" y="186"/>
			<point x="128" y="174"/>
			<point x="173" y="168" type="curve" smooth="yes"/>
			<point x="215" y="162"/>
			<point x="248" y="150"/>
			<point x="248" y="114" type="curve" smooth="yes"/>
			<point x="248" y="79"/>
			<point x="220" y="61"/>
			<point x="183" y="61" type="curve" smooth="yes"/>
			<point x="136" y="61"/>
			<point x="106" y="82"/>
			<point x="106" y="123" type="curve" smooth="yes"/>
			<point x="106" y="152"/>
			<point x="128" y="167"/>
		</contour>
	</outline>
</glyph>
<glyph name="f.ss02" format="2">
	<advance width="305"/>
	<outline>
		<contour>
			<point x="93" y="608" type="curve" smooth="yes"/>
			<point x="93" y="30" type="line"/>
			<point x="93" y="8"/>
			<point x="111" y="-10"/>
			<point x="133" y="-10" type="curve" smooth="yes"/>
			<point x="155" y="-10"/>
			<point x="173" y="8"/>
			<point x="173" y="30" type="curve" smooth="yes"/>
			<point x="173" y="603" type="line" smooth="yes"/>
			<point x="173" y="623"/>
			<point x="183" y="640"/>
			<point x="199" y="640" type="curve" smooth="yes"/>
			<point x="235" y="640" type="line" smooth="yes"/>
			<point x="257" y="640"/>
			<point x="275" y="658"/>
			<point x="275" y="680" type="curve" smooth="yes"/>
			<point x="275" y="702"/>
			<point x="257" y="720"/>
			<point x="235" y="720" type="curve" smooth="yes"/>
			<point x="186" y="720" type="line" smooth="yes"/>
			<point x="127" y="720"/>
			<point x="93" y="663"/>
		</contour>
		<contour>
			<point x="231" y="515" type="curve" smooth="yes"/>
			<point x="60" y="515" type="line"/>
			<point x="38" y="515"/>
			<point x="20" y="499"/>
			<point x="20" y="478" type="curve" smooth="yes"/>
			<point x="20" y="458"/>
			<point x="38" y="442"/>
			<point x="60" y="442" type="curve" smooth="yes"/>
			<point x="231" y="442" type="line" smooth="yes"/>
			<point x="253" y="442"/>
			<point x="271" y="458"/>
			<point x="271" y="478" type="curve" smooth="yes"/>
			<point x="271" y="498"/>
			<point x="253" y="515"/>
		</contour>
	</outline>
</glyph>
<glyph name="f_f" format="2">
	<advance width="645"/>
	<anchor x="193" y="0" name="bottom_1"/>
	<anchor x="518" y="0" name="bottom_2"/>
	<anchor x="355" y="0" name="caret_1"/>
	<anchor x="193" y="720" name="top_1"/>
	<anchor x="518" y="720" name="top_2"/>
	<outline>
		<contour>
			<point x="157" y="-10" type="curve" smooth="yes"/>
			<point x="179" y="-10"/>
			<point x="197" y="8"/>
			<point x="197" y="30" type="curve" smooth="yes"/>
			<point x="197" y="579" type="line" smooth="yes"/>
			<point x="197" y="635"/>
			<point x="212" y="655"/>
			<point x="233" y="655" type="curve" smooth="yes"/>
			<point x="240" y="655"/>
			<point x="249" y="654"/>
			<point x="259" y="645" type="curve" smooth="yes"/>
			<point x="265" y="640"/>
			<point x="275" y="635"/>
			<point x="287" y="635" type="curve" smooth="yes"/>
			<point x="309" y="635"/>
			<point x="325" y="653"/>
			<point x="325" y="674" type="curve" smooth="yes"/>
			<point x="325" y="709"/>
			<point x="278" y="735"/>
			<point x="234" y="735" type="curve" smooth="yes"/>
			<point x="178" y="735"/>
			<point x="117" y="694"/>
			<point x="117" y="579" type="curve" smooth="yes"/>
			<point x="117" y="30" type="line" smooth="yes"/>
			<point x="117" y="8"/>
			<point x="135" y="-10"/>
		</contour>
		<contour>
			<point x="457" y="-10" type="curve" smooth="yes"/>
			<point x="479" y="-10"/>
			<point x="497" y="8"/>
			<point x="497" y="30" type="curve" smooth="yes"/>
			<point x="497" y="579" type="line" smooth="yes"/>
			<point x="497" y="635"/>
			<point x="512" y="655"/>
			<point x="533" y="655" type="curve" smooth="yes"/>
			<point x="540" y="655"/>
			<point x="549" y="654"/>
			<point x="559" y="645" type="curve" smooth="yes"/>
			<point x="565" y="640"/>
			<point x="575" y="635"/>
			<point x="587" y="635" type="curve" smooth="yes"/>
			<point x="609" y="635"/>
			<point x="625" y="653"/>
			<point x="625" y="674" type="curve" smooth="yes"/>
			<point x="625" y="709"/>
			<point x="578" y="735"/>
			<point x="534" y="735" type="curve" smooth="yes"/>
			<point x="478" y="735"/>
			<point x="417" y="694"/>
			<point x="417" y="579" type="curve" smooth="yes"/>
			<point x="417" y="30" type="line" smooth="yes"/>
			<point x="417" y="8"/>
			<point x="435" y="-10"/>
		</contour>
		<contour>
			<point x="70" y="442" type="curve" smooth="yes"/>
			<point x="581" y="442" type="line" smooth="yes"/>
			<point x="603" y="442"/>
			<point x="621" y="458"/>
			<point x="621" y="478" type="curve" smooth="yes"/>
			<point x="621" y="498"/>
			<point x="603" y="515"/>
			<point x="581" y="515" type="curve" smooth="yes"/>
			<point x="70" y="515" type="line" smooth="yes"/>
			<point x="48" y="515"/>
			<point x="30" y="499"/>
			<point x="30" y="478" type="curve" smooth="yes"/>
			<point x="30" y="458"/>
			<point x="48" y="442"/>
		</contour>
	</outline>
</glyph>
<glyph name="five.lf" format="2">
	<advance width="588"/>
	<outline>
		<contour>
			<point x="139" y="442" type="curve"/>
			<point x="156" y="442" type="line"/>
			<point x="184" y="653" type="line"/>
			<point x="149" y="620" type="line"/>
			<point x="445" y="620" type="line" smooth="yes"/>
			<point x="467" y="620"/>
			<point x="485" y="638"/>
			<point x="485" y="660" type="curve" smooth="yes"/>
			<point x="485" y="682"/>
			<point x="467" y="700"/>
			<point x="445" y="700" type="curve" smooth="yes"/>
			<point x="149" y="700" type="line" smooth="yes"/>
			<point x="127" y="700"/>
			<point x="107" y="682"/>
			<point x="104" y="661" type="curve" smooth="yes"/>
			<point x="68" y="404" type="line" smooth="yes"/>
			<point x="64" y="377"/>
			<point x="87" y="354"/>
			<point x="113" y="354" type="curve" smooth="yes"/>
			<point x="136" y="354"/>
			<point x="146" y="364"/>
			<point x="158" y="373" type="curve" smooth="yes"/>
			<point x="170" y="382"/>
			<point x="222" y="417"/>
			<point x="305" y="417" type="curve" smooth="yes"/>
			<point x="408" y="417"/>
			<point x="471" y="347"/>
			<point x="471" y="249" type="curve" smooth="yes"/>
			<point x="471" y="146"/>
			<point x="409" y="65"/>
			<point x="295" y="65" type="curve" smooth="yes"/>
			<point x="178" y="65"/>
			<point x="127" y="152"/>
			<point x="117" y="195" type="curve" smooth="yes"/>
			<point x="112" y="217"/>
			<point x="98" y="235"/>
			<point x="76" y="235" type="curve" smooth="yes"/>
			<point x="54" y="235"/>
			<point x="33" y="217"/>
			<point x="36" y="195" type="curve" smooth="yes"/>
			<point x="46" y="118"/>
			<point x="123" y="-15"/>
			<point x="295" y="-15" type="curve" smooth="yes"/>
			<point x="452" y="-15"/>
			<point x="551" y="112"/>
			<point x="551" y="249" type="curve" smooth="yes"/>
			<point x="551" y="395"/>
			<point x="453" y="497"/>
			<point x="305" y="497" type="curve" smooth="yes"/>
			<point x="234" y="497"/>
			<point x="180" y="475"/>
		</contour>
	</outline>
</glyph>
<glyph name="jdotless.ss02" format="2">
	<advance width="208"/>
	<anchor x="104" y="-170" name="bottom"/>
	<anchor x="104" y="515" name="top"/>
	<outline>
		<contour>
			<point x="143" y="-68" type="curve" smooth="yes"/>
			<point x="143" y="485" type="line"/>
			<point x="143" y="507"/>
			<point x="125" y="525"/>
			<point x="103" y="525" type="curve" smooth="yes"/>
			<point x="81" y="525"/>
			<point x="63" y="507"/>
			<point x="63" y="485" type="curve" smooth="yes"/>
			<point x="63" y="-63" type="line" smooth="yes"/>
			<point x="63" y="-83"/>
			<point x="53" y="-90"/>
			<point x="37" y="-90" type="curve" smooth="yes"/>
			<point x="1" y="-90" type="line" smooth="yes"/>
			<point x="-21" y="-90"/>
			<point x="-39" y="-108"/>
			<point x="-39" y="-130" type="curve" smooth="yes"/>
			<point x="-39" y="-152"/>
			<point x="-21" y="-170"/>
			<point x="1" y="-170" type="curve" smooth="yes"/>
			<point x="50" y="-170" type="line" smooth="yes"/>
			<point x="109" y="-170"/>
			<point x="143" y="-123"/>
		</contour>
	</outline>
</glyph>
<glyph name="nine.lf.001" format="2">
	<advance width="572"/>
	<outline>
		<contour>
			<point x="517" y="345" type="curve"/>
			<point x="474" y="409" type="line"/>
			<point x="439" y="371"/>
			<point x="376" y="329"/>
			<point x="279" y="329" type="curve" smooth="yes"/>
			<point x="188" y="329"/>
			<point x="131" y="395"/>
			<point x="131" y="481" type="curve" smooth="yes"/>
			<point x="131" y="564"/>
			<point x="186" y="635"/>
			<point x="293" y="635" type="curve" smooth="yes"/>
			<point x="398" y="635"/>
			<point x="459" y="558"/>
			<point x="459" y="340" type="curve" smooth="yes"/>
			<point x="459" y="179"/>
			<point x="408" y="65"/>
			<point x="295" y="65" type="curve" smooth="yes"/>
			<point x="228" y="65"/>
			<point x="180" y="96"/>
			<point x="151" y="158" type="curve" smooth="yes"/>
			<point x="145" y="171"/>
			<point x="131" y="181"/>
			<point x="115" y="181" type="curve" smooth="yes"/>
			<point x="93" y="181"/>
			<point x="75" y="163"/>
			<point x="75" y="141" type="curve" smooth="yes"/>
			<point x="75" y="135"/>
			<point x="76" y="129"/>
			<point x="79" y="124" type="curve" smooth="yes"/>
			<point x="118" y="38"/>
			<point x="200" y="-15"/>
			<point x="295" y="-15" type="curve" smooth="yes"/>
			<point x="453" y="-15"/>
			<point x="539" y="147"/>
			<point x="539" y="340" type="curve" smooth="yes"/>
			<point x="539" y="591"/>
			<point x="444" y="715"/>
			<point x="293" y="715" type="curve" smooth="yes"/>
			<point x="139" y="715"/>
			<point x="51" y="594"/>
			<point x="51" y="481" type="curve" smooth="yes"/>
			<point x="51" y="350"/>
			<point x="146" y="249"/>
			<point x="279" y="249" type="curve" smooth="yes"/>
			<point x="412" y="249"/>
			<point x="481" y="328"/>
		</contour>
	</outline>
</glyph>
<glyph name="peseta.ss01" format="2">
	<advance width="744"/>
	<outline>
		<contour>
			<point x="200" y="-10" type="curve" smooth="yes"/>
			<point x="223" y="-10"/>
			<point x="241" y="8"/>
			<point x="241" y="31" type="curve" smooth="yes"/>
			<point x="241" y="700" type="line"/>
			<point x="200" y="700" type="line" smooth="yes" name="💚"/>
			<point x="177" y="700"/>
			<point x="159" y="682"/>
			<point x="159" y="659" type="curve" smooth="yes"/>
			<point x="159" y="31" type="line" smooth="yes"/>
			<point x="159" y="8"/>
			<point x="177" y="-10"/>
		</contour>
		<contour>
			<point x="196" y="288" type="line"/>
			<point x="409" y="288" type="line" smooth="yes"/>
			<point x="514" y="288"/>
			<point x="598" y="375"/>
			<point x="598" y="494" type="curve" smooth="yes"/>
			<point x="598" y="613"/>
			<point x="511" y="700"/>
			<point x="392" y="700" type="curve" smooth="yes"/>
			<point x="196" y="700" type="line"/>
			<point x="196" y="622" type="line"/>
			<point x="392" y="622" type="line" smooth="yes"/>
			<point x="468" y="622"/>
			<point x="517" y="570"/>
			<point x="517" y="494" type="curve" smooth="yes"/>
			<point x="517" y="418"/>
			<point x="468" y="366"/>
			<point x="392" y="366" type="curve" smooth="yes"/>
			<point x="196" y="366" type="line"/>
		</contour>
		<contour>
			<point x="201" y="661" type="move"/>
			<point x="201" y="0" type="line"/>
		</contour>
		<contour>
			<point x="198" y="661" type="move"/>
			<point x="404" y="661" type="line" smooth="yes"/>
			<point x="496" y="661"/>
			<point x="567" y="586"/>
			<point x="567" y="494" type="curve" smooth="yes"/>
			<point x="567" y="402"/>
			<point x="496" y="327"/>
			<point x="404" y="327" type="curve" smooth="yes"/>
			<point x="198" y="327" type="line"/>
		</contour>
		<contour>
			<point x="64" y="494" type="move"/>
			<point x="680" y="494" type="line"/>
		</contour>
	</outline>
</glyph>
<glyph name="peseta.ss02" format="2">
	<advance width="1085"/>
	<outline>
		<contour>
			<point x="121" y="-10" type="curve" smooth="yes"/>
			<point x="144" y="-10"/>
			<point x="162" y="8"/>
			<point x="162" y="31" type="curve" smooth="yes"/>
			<point x="162" y="700" type="line"/>
			<point x="121" y="700" type="line" smooth="yes"/>
			<point x="98" y="700"/>
			<point x="80" y="681"/>
			<point x="80" y="658" type="curve" smooth="yes"/>
			<point x="80" y="31" type="line" smooth="yes"/>
			<point x="80" y="8"/>
			<point x="98" y="-10"/>
		</contour>
		<contour>
			<point x="139" y="219" type="line"/>
			<point x="255" y="219" type="line" smooth="yes"/>
			<point x="369" y="219"/>
			<point x="464" y="316"/>
			<point x="464" y="460" type="curve" smooth="yes"/>
			<point x="464" y="605"/>
			<point x="369" y="700"/>
			<point x="255" y="700" type="curve" smooth="yes" name="❌"/>
			<point x="139" y="700" type="line" name="❌"/>
			<point x="139" y="620" type="line"/>
			<point x="255" y="620" type="line" smooth="yes"/>
			<point x="330" y="620"/>
			<point x="384" y="554"/>
			<point x="384" y="460" type="curve" smooth="yes"/>
			<point x="384" y="367"/>
			<point x="330" y="299"/>
			<point x="255" y="299" type="curve" smooth="yes"/>
			<point x="139" y="299" type="line"/>
		</contour>
		<contour>
			<point x="832" y="-15" type="curve" smooth="yes"/>
			<point x="961" y="-15"/>
			<point x="1006" y="81"/>
			<point x="1005" y="149" type="curve" smooth="yes"/>
			<point x="1003" y="251"/>
			<point x="908" y="277"/>
			<point x="845" y="300" type="curve" smooth="yes"/>
			<point x="788" y="321"/>
			<point x="738" y="331"/>
			<point x="738" y="386" type="curve" smooth="yes"/>
			<point x="738" y="425"/>
			<point x="770" y="454"/>
			<point x="832" y="454" type="curve" smooth="yes"/>
			<point x="896" y="454"/>
			<point x="911" y="415"/>
			<point x="919" y="391" type="curve" smooth="yes"/>
			<point x="924" y="375"/>
			<point x="939" y="363"/>
			<point x="957" y="363" type="curve" smooth="yes"/>
			<point x="980" y="363"/>
			<point x="997" y="381"/>
			<point x="997" y="402" type="curve" smooth="yes"/>
			<point x="997" y="437"/>
			<point x="950" y="530"/>
			<point x="832" y="530" type="curve" smooth="yes"/>
			<point x="721" y="530"/>
			<point x="661" y="448"/>
			<point x="661" y="388" type="curve" smooth="yes"/>
			<point x="661" y="275"/>
			<point x="757" y="254"/>
			<point x="822" y="227" type="curve" smooth="yes"/>
			<point x="868" y="208"/>
			<point x="928" y="195"/>
			<point x="928" y="137" type="curve" smooth="yes"/>
			<point x="928" y="88"/>
			<point x="886" y="59"/>
			<point x="827" y="59" type="curve" smooth="yes"/>
			<point x="783" y="59"/>
			<point x="735" y="75"/>
			<point x="723" y="140" type="curve" smooth="yes"/>
			<point x="719" y="161"/>
			<point x="705" y="177"/>
			<point x="684" y="177" type="curve" smooth="yes"/>
			<point x="660" y="177"/>
			<point x="642" y="156"/>
			<point x="644" y="134" type="curve" smooth="yes"/>
			<point x="652" y="46"/>
			<point x="731" y="-15"/>
		</contour>
		<contour>
			<point x="596" y="-9" type="curve" smooth="yes"/>
			<point x="627" y="-9"/>
			<point x="645" y="9"/>
			<point x="645" y="35" type="curve" smooth="yes"/>
			<point x="645" y="56"/>
			<point x="626" y="71"/>
			<point x="600" y="71" type="curve" smooth="yes"/>
			<point x="579" y="71"/>
			<point x="574" y="81"/>
			<point x="574" y="117" type="curve" smooth="yes"/>
			<point x="574" y="585" type="line" smooth="yes"/>
			<point x="574" y="607"/>
			<point x="556" y="625"/>
			<point x="534" y="625" type="curve" smooth="yes"/>
			<point x="512" y="625"/>
			<point x="494" y="607"/>
			<point x="494" y="585" type="curve" smooth="yes"/>
			<point x="494" y="117" type="line" smooth="yes"/>
			<point x="494" y="30"/>
			<point x="534" y="-9"/>
		</contour>
		<contour>
			<point x="613" y="491" type="curve" smooth="yes"/>
			<point x="412" y="491" type="line"/>
			<point x="407" y="418" type="line"/>
			<point x="613" y="418" type="line" smooth="yes"/>
			<point x="635" y="418"/>
			<point x="653" y="435"/>
			<point x="653" y="455" type="curve" smooth="yes"/>
			<point x="653" y="475"/>
			<point x="635" y="491"/>
		</contour>
	</outline>
</glyph>
<glyph name="six.lf.001" format="2">
	<advance width="572"/>
	<outline>
		<contour>
			<point x="55" y="318" type="curve"/>
			<point x="98" y="254" type="line"/>
			<point x="133" y="312"/>
			<point x="211" y="364"/>
			<point x="308" y="364" type="curve" smooth="yes"/>
			<point x="399" y="364"/>
			<point x="451" y="304"/>
			<point x="451" y="225" type="curve" smooth="yes"/>
			<point x="451" y="142"/>
			<point x="401" y="65"/>
			<point x="294" y="65" type="curve" smooth="yes"/>
			<point x="189" y="65"/>
			<point x="113" y="142"/>
			<point x="113" y="360" type="curve" smooth="yes"/>
			<point x="113" y="521"/>
			<point x="189" y="635"/>
			<point x="302" y="635" type="curve" smooth="yes"/>
			<point x="369" y="635"/>
			<point x="417" y="604"/>
			<point x="446" y="542" type="curve" smooth="yes"/>
			<point x="452" y="529"/>
			<point x="466" y="519"/>
			<point x="482" y="519" type="curve" smooth="yes"/>
			<point x="504" y="519"/>
			<point x="522" y="537"/>
			<point x="522" y="559" type="curve" smooth="yes"/>
			<point x="522" y="565"/>
			<point x="521" y="571"/>
			<point x="518" y="576" type="curve" smooth="yes"/>
			<point x="479" y="662"/>
			<point x="397" y="715"/>
			<point x="302" y="715" type="curve" smooth="yes"/>
			<point x="144" y="715"/>
			<point x="33" y="553"/>
			<point x="33" y="360" type="curve" smooth="yes"/>
			<point x="33" y="109"/>
			<point x="143" y="-15"/>
			<point x="294" y="-15" type="curve" smooth="yes"/>
			<point x="448" y="-15"/>
			<point x="531" y="112"/>
			<point x="531" y="225" type="curve" smooth="yes"/>
			<point x="531" y="349"/>
			<point x="441" y="444"/>
			<point x="308" y="444" type="curve" smooth="yes"/>
			<point x="175" y="444"/>
			<point x="91" y="355"/>
		</contour>
	</outline>
</glyph>
<glyph name="t.ss02" format="2">
	<advance width="321"/>
	<outline>
		<contour>
			<point x="93" y="567" type="curve" smooth="yes"/>
			<point x="93" y="95" type="line" smooth="yes"/>
			<point x="93" y="40"/>
			<point x="127" y="-7"/>
			<point x="186" y="-7" type="curve" smooth="yes"/>
			<point x="235" y="-7" type="line" smooth="yes"/>
			<point x="257" y="-7"/>
			<point x="275" y="11"/>
			<point x="275" y="33" type="curve" smooth="yes"/>
			<point x="275" y="55"/>
			<point x="257" y="73"/>
			<point x="235" y="73" type="curve" smooth="yes"/>
			<point x="199" y="73" type="line" smooth="yes"/>
			<point x="183" y="73"/>
			<point x="173" y="80"/>
			<point x="173" y="100" type="curve" smooth="yes"/>
			<point x="173" y="567" type="line" smooth="yes"/>
			<point x="173" y="589"/>
			<point x="155" y="607"/>
			<point x="133" y="607" type="curve" smooth="yes"/>
			<point x="111" y="607"/>
			<point x="93" y="589"/>
		</contour>
		<contour>
			<point x="70" y="442" type="curve" smooth="yes"/>
			<point x="241" y="442" type="line" smooth="yes"/>
			<point x="263" y="442"/>
			<point x="281" y="459"/>
			<point x="281" y="479" type="curve" smooth="yes"/>
			<point x="281" y="499"/>
			<point x="263" y="515"/>
			<point x="241" y="515" type="curve" smooth="yes"/>
			<point x="70" y="515" type="line" smooth="yes"/>
			<point x="48" y="515"/>
			<point x="30" y="499"/>
			<point x="30" y="479" type="curve" smooth="yes"/>
			<point x="30" y="458"/>
			<point x="48" y="442"/>
		</contour>
	</outline>
</glyph>
<glyph name="tildecomb.loclVIT" format="2">
	<advance width="0"/>
	<guideline x="329" y="753" angle="0"/>
	<anchor x="201" y="515" name="_top"/>
	<anchor x="201" y="728" name="top"/>
	<outline>
		<contour>
			<point x="289" y="704" type="curve" smooth="yes"/>
			<point x="285" y="691"/>
			<point x="280" y="688"/>
			<point x="261" y="688" type="curve" smooth="yes"/>
			<point x="228" y="688"/>
			<point x="200" y="733"/>
			<point x="141" y="733" type="curve" smooth="yes"/>
			<point x="90" y="733"/>
			<point x="53" y="699"/>
			<point x="42" y="662" type="curve" smooth="yes"/>
			<point x="35" y="638"/>
			<point x="53" y="614"/>
			<point x="78" y="614" type="curve" smooth="yes"/>
			<point x="95" y="614"/>
			<point x="109" y="625"/>
			<point x="114" y="640" type="curve" smooth="yes"/>
			<point x="118" y="654"/>
			<point x="123" y="658"/>
			<point x="141" y="658" type="curve" smooth="yes"/>
			<point x="172" y="658"/>
			<point x="201" y="613"/>
			<point x="261" y="613" type="curve" smooth="yes"/>
			<point x="314" y="613"/>
			<point x="351" y="647"/>
			<point x="361" y="684" type="curve" smooth="yes"/>
			<point x="368" y="708"/>
			<point x="350" y="732"/>
			<point x="325" y="732" type="curve" smooth="yes"/>
			<point x="308" y="732"/>
			<point x="293" y="720"/>
		</contour>
	</outline>
</glyph>
<glyph name="won.ss01" format="2">
	<advance width="895"/>
	<outline>
		<contour>
			<point x="272" y="0" type="curve" smooth="yes"/>
			<point x="291" y="0"/>
			<point x="313" y="15"/>
			<point x="321" y="46" type="curve" smooth="yes"/>
			<point x="455" y="558" type="line"/>
			<point x="435" y="558" type="line"/>
			<point x="570" y="46" type="line" smooth="yes"/>
			<point x="578" y="15"/>
			<point x="600" y="0"/>
			<point x="619" y="0" type="curve" smooth="yes"/>
			<point x="638" y="0"/>
			<point x="662" y="15"/>
			<point x="668" y="46" type="curve" smooth="yes"/>
			<point x="794" y="648" type="line" smooth="yes"/>
			<point x="795" y="652"/>
			<point x="796" y="656"/>
			<point x="796" y="661" type="curve" smooth="yes"/>
			<point x="796" y="683"/>
			<point x="777" y="700"/>
			<point x="755" y="700" type="curve" smooth="yes"/>
			<point x="738" y="700"/>
			<point x="721" y="689"/>
			<point x="718" y="674" type="curve" smooth="yes"/>
			<point x="606" y="114" type="line"/>
			<point x="630" y="115" type="line"/>
			<point x="487" y="664" type="line" smooth="yes"/>
			<point x="482" y="685"/>
			<point x="464" y="700"/>
			<point x="445" y="700" type="curve" smooth="yes"/>
			<point x="427" y="700"/>
			<point x="409" y="685"/>
			<point x="404" y="664" type="curve" smooth="yes"/>
			<point x="261" y="115" type="line"/>
			<point x="285" y="114" type="line"/>
			<point x="173" y="674" type="line" smooth="yes"/>
			<point x="170" y="689"/>
			<point x="153" y="700"/>
			<point x="136" y="700" type="curve" smooth="yes"/>
			<point x="114" y="700"/>
			<point x="95" y="683"/>
			<point x="95" y="661" type="curve" smooth="yes"/>
			<point x="95" y="656"/>
			<point x="96" y="652"/>
			<point x="97" y="648" type="curve" smooth="yes"/>
			<point x="223" y="46" type="line" smooth="yes"/>
			<point x="229" y="15"/>
			<point x="253" y="0"/>
		</contour>
		<contour>
			<point x="64" y="310" type="move"/>
			<point x="831" y="310" type="line"/>
		</contour>
		<contour>
			<point x="67" y="440" type="move"/>
			<point x="382" y="440" type="line"/>
		</contour>
		<contour>
			<point x="379" y="410" type="move"/>
		</contour>
		<contour>
			<point x="517" y="440" type="move"/>
			<point x="832" y="440" type="line"/>
		</contour>
	</outline>
</glyph>
<glyph name="y.ss02" format="2">
	<advance width="481"/>
	<anchor x="241" y="0" name="bottom"/>
	<anchor x="241" y="515" name="top"/>
	<outline>
		<contour>
			<point x="33" y="461" type="curve" smooth="yes"/>
			<point x="203" y="13" type="line"/>
			<point x="248" y="118" type="line"/>
			<point x="107" y="489" type="line" smooth="yes"/>
			<point x="101" y="504"/>
			<point x="87" y="515"/>
			<point x="70" y="515" type="curve" smooth="yes" name="❌"/>
			<point x="41" y="515"/>
			<point x="23" y="486"/>
		</contour>
		<contour>
			<point x="101" y="-170" type="curve" smooth="yes"/>
			<point x="144" y="-170" type="line" smooth="yes"/>
			<point x="187" y="-170"/>
			<point x="216" y="-143"/>
			<point x="227" y="-114" type="curve" smooth="yes"/>
			<point x="448" y="461" type="line" smooth="yes"/>
			<point x="458" y="486"/>
			<point x="440" y="515"/>
			<point x="411" y="515" type="curve" smooth="yes" name="❌"/>
			<point x="394" y="515"/>
			<point x="383" y="504"/>
			<point x="377" y="489" type="curve" smooth="yes"/>
			<point x="158" y="-77" type="line" smooth="yes"/>
			<point x="153" y="-90"/>
			<point x="138" y="-90"/>
			<point x="135" y="-90" type="curve" smooth="yes"/>
			<point x="101" y="-90" type="line" smooth="yes"/>
			<point x="79" y="-90"/>
			<point x="61" y="-108"/>
			<point x="61" y="-130" type="curve" smooth="yes"/>
			<point x="61" y="-152"/>
			<point x="79" y="-170"/>
		</contour>
	</outline>
</glyph>
<glyph name="zero.dnom" format="2">
	<advance width="379"/>
	<outline>
		<contour>
			<point x="188" y="386" type="curve" smooth="yes"/>
			<point x="86" y="386"/>
			<point x="40" y="272"/>
			<point x="40" y="191" type="curve" smooth="yes"/>
			<point x="40" y="103"/>
			<point x="80" y="-5"/>
			<point x="188" y="-5" type="curve" smooth="yes"/>
			<point x="294" y="-5"/>
			<point x="339" y="108"/>
			<point x="339" y="192" type="curve" smooth="yes"/>
			<point x="339" y="275"/>
			<point x="309" y="386"/>
		</contour>
		<contour>
			<point x="188" y="320" type="curve" smooth="yes"/>
			<point x="251" y="320"/>
			<point x="273" y="261"/>
			<point x="273" y="192" type="curve" smooth="yes"/>
			<point x="273" y="125"/>
			<point x="247" y="61"/>
			<point x="188" y="61" type="curve" smooth="yes"/>
			<point x="130" y="61"/>
			<point x="106" y="125"/>
			<point x="106" y="191" type="curve" smooth="yes"/>
			<point x="106" y="255"/>
			<point x="134" y="320"/>
		</contour>
	</outline>
</glyph>
<glyph name="zero.zero" format="2">
	<advance width="588"/>
	<outline>
		<contour>
			<point x="464" y="566" type="move"/>
			<point x="140" y="131" type="line"/>
		</contour>
		<component base="zero"/>
	</outline>
</glyph>
